<svg viewBox="0 0 104 104" xmlns="http://www.w3.org/2000/svg"><defs>
	<style><![CDATA[
		.sprite { display: none; }
		.sprite:target { display: inline; }
	]]></style>
</defs>
<path id="icn_date" class="sprite" fill="#FFFFFF" d="M73.062,73.166H62.448V62.553h10.614V73.166L73.062,73.166z M57.143,46.63H46.527v10.616
	h10.616V46.63L57.143,46.63z M73.062,46.63H62.448v10.616h10.614V46.63L73.062,46.63z M41.22,62.553H30.606v10.613H41.22V62.553z
	 M57.143,62.553H46.527v10.613h10.616V62.553L57.143,62.553z M41.22,46.63H30.606v10.616H41.22V46.63z M83.677,25.402v58.379H19.992
	V25.402h7.961v2.654c0,2.927,2.38,5.307,5.307,5.307c2.927,0,5.307-2.38,5.307-5.307v-2.654h26.537v2.654
	c0,2.927,2.379,5.307,5.307,5.307c2.929,0,5.308-2.38,5.308-5.307v-2.654H83.677z M78.37,41.324H25.298v37.15H78.37V41.324z
	 M73.062,22.749c0-1.464-1.188-2.654-2.653-2.654s-2.653,1.189-2.653,2.654v5.307c0,1.464,1.188,2.653,2.653,2.653
	s2.653-1.189,2.653-2.653V22.749z M35.913,28.056c0,1.464-1.185,2.653-2.653,2.653c-1.468,0-2.654-1.189-2.654-2.653v-5.307
	c0-1.464,1.186-2.654,2.654-2.654c1.468,0,2.653,1.189,2.653,2.654V28.056z"/>
<path id="icn_search" class="sprite" fill="#004565" d="M83.832,75.613l-16.98-16.985c2.483-3.915,3.92-8.551,3.92-13.521
	c0.006-13.949-11.35-25.303-25.308-25.303c-13.954,0-25.306,11.354-25.306,25.306c0,13.957,11.352,25.312,25.306,25.312
	c4.727,0,9.146-1.303,12.935-3.566l17.098,17.098L83.832,75.613z M29.587,45.109c0-8.748,7.124-15.871,15.874-15.871
	c8.754,0,15.877,7.121,15.877,15.871c0,8.755-7.123,15.875-15.877,15.875C36.711,60.984,29.587,53.864,29.587,45.109z"/>
<path id="icn_time" class="sprite" fill="#FFFFFF" d="M54.652,52V38.731h-5.304v18.574h15.919V52H54.652z M22.287,40.628
	c-3.347-5.158-2.747-12.125,1.791-16.627c4.512-4.477,11.425-5.032,16.546-1.712C32.208,25.523,25.518,32.216,22.287,40.628z
	 M71.188,70.296c4.552-4.758,7.354-11.194,7.354-18.299c0-14.654-11.88-26.537-26.542-26.537c-14.654,0-26.537,11.881-26.537,26.537
	c0,7.104,2.811,13.546,7.356,18.304l-4.606,11.957c-0.422,1.047,0.765,2.018,1.707,1.387l9.502-8.285
	c3.748,2.021,8.031,3.173,12.584,3.173c4.557,0,8.848-1.15,12.59-3.173l9.506,8.285c0.942,0.631,2.131-0.34,1.705-1.387
	L71.188,70.296z M52.002,73.225c-11.708,0-21.232-9.521-21.232-21.229s9.524-21.23,21.232-21.23s21.234,9.521,21.234,21.23
	S63.711,73.225,52.002,73.225L52.002,73.225z M80.009,24.077c-4.504-4.538-11.476-5.14-16.635-1.791
	c8.412,3.231,15.104,9.921,18.343,18.336C85.034,35.5,84.477,28.589,80.009,24.077z"/>
<path id="icn_tel" class="sprite" fill="#FFFFFF" d="M59.499,82.761C39.962,91.688,9.642,32.75,28.736,22.794l5.586-2.755l9.26,18.076
	l-5.521,2.72c-5.804,3.113,6.284,26.728,12.221,23.849c0.24-0.107,5.456-2.67,5.472-2.68l9.337,18.018
	C65.07,80.031,59.818,82.615,59.499,82.761z M55.417,47.205l7.737,2.307c0.591-1.98,0.425-4.187-0.637-6.144
	c-1.061-1.959-2.817-3.307-4.797-3.895L55.417,47.205z M60.203,31.142c4.111,1.225,7.757,4.02,9.959,8.089
	c2.203,4.073,2.545,8.652,1.32,12.762l-4.76-1.419c0.859-2.893,0.615-6.114-0.934-8.98c-1.547-2.866-4.113-4.831-7.01-5.69
	L60.203,31.142z M62.721,22.69c6.271,1.87,11.834,6.131,15.191,12.347c3.363,6.212,3.887,13.198,2.018,19.473l-4.879-1.453
	c1.497-5.025,1.077-10.623-1.611-15.597c-2.693-4.977-7.147-8.392-12.174-9.888L62.721,22.69z"/>
<path id="icn_mail" class="sprite" fill="#FFFFFF" d="M51.697,53.848L19.899,28.077H83.5L51.697,53.848z M37.304,49.012L19.859,34.874v33.165
	L37.304,49.012z M66.091,49.012l17.445,19.027V34.874L66.091,49.012z M61.96,52.36l-10.263,8.316L41.434,52.36L19.917,75.833h63.562
	L61.96,52.36z"/>
<g id="icn_money" class="sprite">
	<polygon fill="#FFFFFF" points="78.67,35.876 25.397,35.876 25.397,67.84 28.061,67.84 28.061,38.54 78.67,38.54 	"/>
	<polygon fill="#FFFFFF" points="73.341,30.549 20.07,30.549 20.07,62.514 22.734,62.514 22.734,33.213 73.341,33.213 	"/>
	<path fill="#FFFFFF" d="M30.725,41.204v31.963h53.272V41.204H30.725z M57.359,67.84c-5.883,0-10.654-4.771-10.654-10.654
		c0-5.881,4.771-10.653,10.654-10.653c5.886,0,10.654,4.772,10.654,10.653C68.014,63.068,63.245,67.84,57.359,67.84z"/>
	<path fill="#FFFFFF" d="M57.984,49.98c-1.491,0-2.803,0.476-3.938,1.431c-1.134,0.952-1.888,2.216-2.264,3.792h-1.644v1.664h1.416
		v0.396l0.02,0.541h-1.436v1.666h1.686c0.396,1.539,1.153,2.766,2.272,3.692c1.121,0.92,2.418,1.384,3.887,1.384
		c1.192,0,2.233-0.344,3.121-1.035v-2.764c-0.823,0.714-1.77,1.072-2.83,1.072c-0.776,0-1.453-0.213-2.033-0.631
		c-0.58-0.42-1.018-0.992-1.317-1.721h4.288v-1.666h-4.684c-0.012-0.109-0.021-0.291-0.021-0.541l0.021-0.396h4.684v-1.664h-4.35
		c0.283-0.767,0.726-1.37,1.322-1.82c0.594-0.452,1.291-0.676,2.09-0.676c1.014,0,1.99,0.442,2.936,1.333v-2.873
		c-0.324-0.328-0.8-0.606-1.421-0.838C59.168,50.095,58.568,49.98,57.984,49.98z"/>
</g>
<g id="icn_box" class="sprite">
	<rect x="19.852" y="22.516" fill="#FFFFFF" width="63.962" height="11.672"/>
	<path fill="#FFFFFF" d="M22.802,81.2h58.113V37.458H22.802V81.2z M41.118,41.996h21.43v8.194h-21.43V41.996z"/>
</g>
<g id="icn_animal" class="sprite">
	<g>
		<path fill="#FFFFFF" d="M42.546,41.296c-10.575-0.923-11.947-18.333-3.07-19.372C47.379,21,51.858,36.757,42.546,41.296z"/>
		<path fill="#FFFFFF" d="M66.081,21.924c5.792,5.552,3.344,20.857-7.162,19.372C51.936,36.705,53.846,19.283,66.081,21.924z"/>
		<path fill="#FFFFFF" d="M29.244,54.552c-6.706-0.796-9.651-5.338-9.209-13.255C28.003,30.662,39.688,49.7,29.244,54.552z"/>
		<path fill="#FFFFFF" d="M83.477,41.296c0.479,8.296-3.146,12.498-10.231,13.255C62.998,49.328,75.473,31.036,83.477,41.296z"/>
		<path fill="#FFFFFF" d="M70.175,78.002c-11.042,0.9-32.025,3.541-39.908-2.039c-3.723-6.24,0.966-12.014,6.14-18.354
			c4.4-5.391,8.82-13.573,16.372-12.234c6.089,1.079,9.262,8.508,12.279,12.234C69.507,63.104,77.861,69.718,70.175,78.002z"/>
	</g>
</g>
<path id="icn_menu" class="sprite" fill="#FFFFFF" d="M83.838,32.706H19.992V19.929h63.846V32.706z M83.838,45.484H19.992v12.778h63.846V45.484
	z M83.838,71.041H19.992v12.775h63.846V71.041z"/>
<path id="icn_myrides" class="sprite" fill="#FFFFFF" d="M66.525,60.986c-1.153,0-2.276-0.229-3.336-0.688l1.244-2.878
	c0.664,0.285,1.368,0.431,2.092,0.431c0.59,0,1.174-0.099,1.729-0.293l1.034,2.959C68.4,60.831,67.471,60.986,66.525,60.986z
	 M37.47,60.932c-0.992,0-1.972-0.178-2.91-0.521l1.083-2.939c0.59,0.219,1.2,0.326,1.826,0.326c0.691,0,1.367-0.135,2.006-0.395
	l1.189,2.898C39.647,60.721,38.572,60.932,37.47,60.932z M60.534,58.848l-4.414-2.516l1.552-2.723l4.416,2.515L60.534,58.848z
	 M43.362,58.795l-1.611-2.691l4.359-2.607l1.611,2.688L43.362,58.795z M53.785,55.049c-0.646-0.271-1.33-0.408-2.032-0.408
	c-0.613,0-1.216,0.106-1.792,0.317l-1.07-2.949c0.922-0.333,1.886-0.499,2.863-0.499c1.117,0,2.208,0.218,3.237,0.649L53.785,55.049
	z M73.273,54.615c-1.418,0-2.571,1.15-2.571,2.574s1.153,2.576,2.571,2.576c1.425,0,2.58-1.156,2.58-2.576
	C75.854,55.766,74.698,54.615,73.273,54.615z M30.549,54.615c-1.423,0-2.577,1.15-2.577,2.574s1.153,2.576,2.577,2.576
	c1.424,0,2.577-1.156,2.577-2.576C33.126,55.766,31.973,54.615,30.549,54.615z M78.518,52.401v17.777l-10.642,6.596V65.159h-2.66
	v11.016L54.575,68.5v-8.661h-5.321v8.659l-10.641,7.677V65.159h-2.66v11.612l-10.641-6.597V34.811l10.641,6.595v10.453h2.66V41.412
	l10.641-7.678v12.804h5.321V33.734l4.194,3.028c-0.9-1.865-1.535-4.039-1.535-6.716l0.053-0.917l-5.373-3.874l-14.75,10.642
	L19.992,25.256v47.885l17.172,10.642l14.751-10.642l14.75,10.642l17.173-10.642V42.233l-0.104,0.126
	C81.521,44.971,79.441,47.461,78.518,52.401z M83.838,30.046c0-5.583-5.056-10.111-10.643-10.111
	c-5.584,0-10.641,4.528-10.641,10.111c0,8.303,8.479,9.181,10.641,21.812C75.357,39.228,83.838,38.35,83.838,30.046z M69.206,30.577
	c0-2.206,1.787-3.991,3.989-3.991c2.203,0,3.99,1.785,3.99,3.991s-1.787,3.99-3.99,3.99C70.993,34.567,69.206,32.782,69.206,30.577z
	 M67.749,51.858c-0.563-2.64-1.458-4.586-2.533-6.209v6.209H67.749z"/>
<path id="icn_user" class="sprite" fill="#FFFFFF" d="M70.588,38.579c0,10.293-8.346,18.642-18.641,18.642
	c-10.296,0-18.641-8.349-18.641-18.642c0-10.298,8.345-18.643,18.641-18.643C62.242,19.936,70.588,28.281,70.588,38.579z
	 M66.333,57.7c-4.01,3.026-8.987,4.845-14.386,4.845c-5.404,0-10.381-1.822-14.399-4.85c-10.842,4.773-17.556,19.639-17.556,26.15
	h63.91C83.902,77.395,76.979,62.527,66.333,57.7z"/>
<path id="icn_handshake" class="sprite" fill="#FFFFFF" d="M76.083,56.834l-4.312-15.866l8.936-2.897c-5.146-10.673-16.03-18.056-28.672-18.056
	c-12.682,0-23.602,7.433-28.724,18.165l8.986,2.789l-4.312,15.866l-7.794-2.037c1.486,16.21,15.251,28.905,31.844,28.905
	c16.593,0,30.355-12.695,31.844-28.905L76.083,56.834z M36.738,61.732c-0.833-0.614-1.013-1.789-0.4-2.623l2.14-2.887
	c0.61-0.83,1.777-1.017,2.616-0.399c0.838,0.61,1.016,1.782,0.403,2.616l-2.141,2.889C38.779,62.118,37.532,62.309,36.738,61.732z
	 M40.518,64.489c-0.831-0.617-1.027-1.763-0.415-2.595l2.155-2.91c0.608-0.83,1.778-1.01,2.611-0.398
	c0.837,0.611,1.022,1.785,0.404,2.617l-2.155,2.91C42.556,64.889,41.334,65.085,40.518,64.489z M44.301,67.249
	c-0.831-0.614-1.016-1.785-0.4-2.62l2.137-2.882c0.618-0.837,1.788-1.017,2.619-0.404c0.833,0.612,1.016,1.786,0.4,2.618
	l-2.135,2.887C46.342,67.636,45.101,67.838,44.301,67.249z M52.839,66.718l-2.142,2.897c-0.57,0.777-1.81,0.99-2.617,0.398
	c-0.833-0.611-1.016-1.783-0.403-2.617l2.147-2.896c0.607-0.824,1.778-1.014,2.616-0.395C53.271,64.71,53.454,65.886,52.839,66.718z
	 M54.811,70.436c-0.377,0-0.785-0.09-1.194-0.302c0.622-0.845,1.534-1.97,1.872-2.771l0.424,0.422
	C57.204,69.079,56.248,70.436,54.811,70.436z M67.871,62.529c-0.729,0.73-1.918,0.73-2.646,0l-5.375-5.375
	c-0.173-0.176-0.461-0.184-0.645-0.012c-0.2,0.178-0.208,0.486-0.02,0.676l4.977,4.979c0.736,0.732,0.736,1.915,0,2.648
	c-0.729,0.732-1.918,0.732-2.646,0L57.475,61.4c-0.18-0.183-0.473-0.183-0.656-0.006c-0.191,0.185-0.191,0.486-0.008,0.668
	l3.355,3.358c0.73,0.731,0.73,1.915,0,2.647c-0.729,0.731-1.918,0.733-2.648,0l-1.732-1.732c0.451-2.766-1.578-5.02-4.061-5.232
	c-0.658-1.569-2.13-2.613-3.773-2.756c-0.631-1.518-2.081-2.613-3.778-2.764c-1.343-3.205-5.728-3.798-7.829-0.928l-1.167,1.574
	c-1.191-0.444-2.479-0.82-3.951-1.168l3.378-12.433c5.039-0.045,9.012-4.821,13.664-1.881c-1.524,1.884-2.773,3.388-4.657,4.487
	c-1.506,0.881-2.21,2.603-1.752,4.289c0.573,2.115,2.717,3.593,5.222,3.593c3.312,0,6.739-2.72,9.345-4.674
	c1.534,1.532,10.164,10.019,11.449,11.437C68.602,60.609,68.602,61.794,67.871,62.529z M69.186,57.342
	c0,0-8.293-8.183-10.756-10.647c-1.316-1.311-2.224-1.491-3.742-0.268c-1.932,1.555-4.295,3.136-6.042,3.75
	c-3.426,1.198-5.297-1.718-3.705-2.651c3.237-1.887,4.813-4.61,7.533-7.691c0.754-0.854,1.653-1.17,2.571-1.17
	c1,0,2.021,0.372,2.907,0.828c4.024,2.081,7.687,3.501,11.545,3.216l3.438,12.654C71.706,55.911,70.465,56.555,69.186,57.342z"/>
<path id="icn_badge_shared" class="sprite" fill="#FFFFFF" d="M33.161,38.751c7.316,0,13.248,5.934,13.248,13.249
	c0,7.314-5.932,13.248-13.248,13.248c-7.319,0-13.249-5.934-13.249-13.248C19.912,44.685,25.842,38.751,33.161,38.751z
	 M72.906,28.152c0-4.391-3.56-7.949-7.949-7.949c-4.391,0-7.949,3.558-7.949,7.949c0,0.827,0.161,1.606,0.395,2.354l-11.154,8.365
	c1.253,1.248,2.323,2.674,3.183,4.237l11.12-8.341c1.266,0.84,2.776,1.335,4.406,1.335C69.347,36.102,72.906,32.543,72.906,28.152z
	 M57.402,73.493c-0.233,0.75-0.395,1.526-0.395,2.354c0,4.392,3.559,7.949,7.949,7.949c4.39,0,7.949-3.558,7.949-7.949
	s-3.56-7.949-7.949-7.949c-1.63,0-3.141,0.497-4.403,1.335l-11.121-8.343c-0.859,1.563-1.932,2.991-3.182,4.239L57.402,73.493z
	 M75.557,60.114c4.389,0,7.949-3.561,7.949-7.95c0-4.391-3.561-7.949-7.949-7.949c-3.396,0-6.272,2.139-7.411,5.136H51.497
	C51.621,50.22,51.709,51.1,51.709,52s-0.088,1.78-0.212,2.65h16.545C69.087,57.816,72.038,60.114,75.557,60.114z"/>
<path id="icn_badge_first100" class="sprite" fill="#FFCC00" d="M57.197,47.037l5.396-5.452l-7.418-1.077l-3.265-7.084l-3.265,7.084
	l-7.415,1.074l5.396,5.452l-1.313,7.749l6.597-3.712l6.599,3.712L57.197,47.037z M31.883,59.101
	c-2.313-3.691-3.668-8.043-3.668-12.718c0-13.271,10.758-24.029,24.029-24.029c13.271,0,24.03,10.757,24.03,24.029
	c0,4.785-1.416,9.234-3.828,12.981c-1.619-0.83-3.277-1.565-4.97-2.189c2.167-3.053,3.458-6.771,3.458-10.792
	c0-10.304-8.386-18.688-18.69-18.688s-18.689,8.385-18.689,18.688c0,3.943,1.233,7.593,3.321,10.613
	C35.176,57.595,33.512,58.296,31.883,59.101z M72.751,65.641l-6.232,8.87c-4.278-2.467-9.207-3.911-14.479-3.932
	c-5.271,0.021-10.2,1.465-14.478,3.932l-6.232-8.87c6.049-3.701,13.112-5.88,20.71-5.903C59.638,59.761,66.701,61.939,72.751,65.641
	z M84.079,73.082H77.78l-1.51,8.01c-1.638-2.701-3.706-5.105-6.081-7.154l6.255-8.907C79.35,67.38,81.926,69.966,84.079,73.082z
	 M27.636,65.03l6.257,8.907c-2.377,2.052-4.443,4.453-6.08,7.154l-1.512-8.01h-6.3C22.154,69.966,24.731,67.38,27.636,65.03z"/>
<path id="icn_badge_first1000" class="sprite" fill="#FFFFFF" d="M57.197,47.037l5.396-5.452l-7.418-1.077l-3.265-7.084l-3.265,7.084
	l-7.415,1.074l5.396,5.452l-1.313,7.749l6.597-3.712l6.599,3.712L57.197,47.037z M31.883,59.101
	c-2.313-3.691-3.668-8.043-3.668-12.718c0-13.271,10.758-24.029,24.029-24.029c13.271,0,24.03,10.757,24.03,24.029
	c0,4.785-1.416,9.234-3.828,12.981c-1.619-0.83-3.277-1.565-4.97-2.189c2.167-3.053,3.458-6.771,3.458-10.792
	c0-10.304-8.386-18.688-18.69-18.688s-18.689,8.385-18.689,18.688c0,3.943,1.233,7.593,3.321,10.613
	C35.176,57.595,33.512,58.296,31.883,59.101z M72.751,65.641l-6.232,8.87c-4.278-2.467-9.207-3.911-14.479-3.932
	c-5.271,0.021-10.2,1.465-14.478,3.932l-6.232-8.87c6.049-3.701,13.112-5.88,20.71-5.903C59.638,59.761,66.701,61.939,72.751,65.641
	z M84.079,73.082H77.78l-1.51,8.01c-1.638-2.701-3.706-5.105-6.081-7.154l6.255-8.907C79.35,67.38,81.926,69.966,84.079,73.082z
	 M27.636,65.03l6.257,8.907c-2.377,2.052-4.443,4.453-6.08,7.154l-1.512-8.01h-6.3C22.154,69.966,24.731,67.38,27.636,65.03z"/>
<g id="icn_smoking" class="sprite">
	<rect x="20.024" y="45.007" fill="#FFFFFF" width="44.545" height="13.961"/>
	<rect x="67.846" y="45.007" fill="#FFFFFF" width="6.791" height="13.961"/>
	<rect x="77.187" y="45.007" fill="#FFFFFF" width="6.79" height="13.961"/>
</g>
<path id="icn_female" class="sprite" fill="#FFFFFF" stroke="#FFFFFF" stroke-width="5" stroke-linejoin="round" d="M49.757,62.257
	c-5.264-0.646-9.547-2.887-12.843-6.693c-3.297-3.837-4.945-8.233-4.945-13.185c0-5.507,1.958-10.222,5.868-14.148
	c3.915-3.923,8.635-5.886,14.167-5.886c5.483,0,10.203,1.969,14.134,5.904c3.929,3.938,5.894,8.648,5.894,14.13
	c0,4.952-1.657,9.348-4.943,13.185c-3.313,3.807-7.607,6.048-12.873,6.693v7.52h7.441v4.451h-7.441v7.43h-4.458v-7.43h-7.388v-4.451
	h7.388V62.257z M52.004,57.958c4.276,0,7.941-1.535,11.003-4.573c3.039-3.033,4.573-6.705,4.573-11.006
	c0-4.297-1.504-7.969-4.573-11.014c-3.029-3.042-6.702-4.564-11.003-4.564c-4.297,0-7.969,1.528-11.014,4.583
	c-3.042,3.055-4.565,6.72-4.565,10.996c0,4.301,1.523,7.973,4.565,11.006C44.035,56.423,47.707,57.958,52.004,57.958z"/>
<path id="icn_male" class="sprite" fill="#FFFFFF" stroke="#FFFFFF" stroke-width="5" stroke-linejoin="round" d="M81.473,39.28h-5.43v-7.513
	l-9.961,9.943c3.557,4.479,5.354,9.591,5.354,15.284c0,6.74-2.396,12.471-7.19,17.263c-4.793,4.794-10.56,7.191-17.263,7.191
	c-6.704,0-12.471-2.397-17.264-7.191c-4.794-4.792-7.191-10.522-7.191-17.263c0-6.678,2.397-12.419,7.191-17.206
	c4.793-4.789,10.561-7.182,17.264-7.182c5.729,0,10.821,1.767,15.278,5.303l9.963-9.947h-7.528v-5.434h16.777V39.28z M46.982,76.057
	c5.204,0,9.697-1.875,13.408-5.581c3.742-3.746,5.616-8.239,5.616-13.481c0-5.244-1.874-9.716-5.581-13.426
	C56.719,39.853,52.225,38,46.982,38c-5.206,0-9.7,1.861-13.408,5.59c-3.745,3.726-5.58,8.198-5.58,13.404
	c0,5.242,1.835,9.735,5.58,13.481C37.283,74.182,41.777,76.057,46.982,76.057z"/>
<path id="icn_close" class="sprite" fill="#208FDD" d="M0,0v104h104V0H0z M73.933,83.29l-21.98-21.763L30.102,83.596l-9.726-9.726
	l21.768-22.053L20.07,29.957l9.726-9.726l22.047,21.762l21.783-22.068l9.81,9.808L61.684,51.704l22.058,21.777L73.933,83.29z"/>
<path id="icn_tel2" class="sprite" fill="#208FDD" d="M0,0v104h104V0H0z M57.721,39.473c1.979,0.588,3.736,1.936,4.797,3.895
	c1.062,1.957,1.228,4.164,0.637,6.144l-7.737-2.307L57.721,39.473z M59.499,82.761C39.962,91.688,9.642,32.75,28.736,22.794
	l5.586-2.755l9.26,18.076l-5.521,2.72c-5.804,3.113,6.284,26.728,12.221,23.849c0.24-0.107,5.456-2.67,5.472-2.68l9.337,18.018
	C65.07,80.031,59.818,82.615,59.499,82.761z M71.482,51.993l-4.76-1.419c0.859-2.893,0.615-6.114-0.934-8.98
	c-1.547-2.866-4.113-4.831-7.01-5.69l1.424-4.762c4.111,1.225,7.757,4.02,9.959,8.089C72.365,43.304,72.707,47.883,71.482,51.993z
	 M79.93,54.51l-4.879-1.453c1.497-5.025,1.077-10.623-1.611-15.597c-2.693-4.977-7.147-8.392-12.174-9.888l1.455-4.882
	c6.271,1.87,11.834,6.131,15.191,12.347C81.275,41.249,81.799,48.235,79.93,54.51z"/>
<path id="icn_mail2" class="sprite" fill="#208FDD" d="M0,0v104h104V0H0z M83.931,28.077L51.912,54.022L19.899,28.077H83.931z M19.859,34.92
	l17.563,14.234L19.859,68.31V34.92z M19.917,76.156L41.58,52.524l10.332,8.372l10.333-8.372l21.664,23.632H19.917z M83.967,68.31
	L66.403,49.154L83.967,34.92V68.31z"/>
<g id="icn_myrides2" class="sprite">
	<circle fill="#208FDD" cx="73.195" cy="30.576" r="3.99"/>
	<path fill="#208FDD" d="M0,0v104h104V0H0z M83.838,73.141L66.665,83.782l-14.75-10.642L37.164,83.782L19.992,73.141V25.256
		l17.172,10.641l14.75-10.642l5.373,3.874l-0.053,0.917c0,2.677,0.635,4.851,1.535,6.716l-4.194-3.028v12.804h-5.321V33.734
		l-10.641,7.678v10447h-2.66V41.406l-10.641-6.595v35.364l10.641,6.597V65.159h2.66v11.016l10.641-7.677v-8.659h5.321V68.5
		l10.641,7.675V65.159h2.66v11.614l10.642-6.596V52.401c0.924-4.94,3.004-7.43,5.217-10.042l0.104-0.126V73.141z M62.088,56.124
		l-1.554,2.724l-4.414-2.516l1.552-2.723L62.088,56.124z M54.991,52.159l-1.206,2.89c-0.646-0.271-1.33-0.408-2.032-0.408
		c-0.613,0-1.216,0.106-1.792,0.317l-1.07-2.949c0.922-0.333,1.886-0.499,2.863-0.499C52.871,51.51,53.962,51.728,54.991,52.159z
		 M47.721,56.184l-4.359,2.611l-1.611-2.691l4.359-2.607L47.721,56.184z M40.664,60.301c-1.017,0.42-2.092,0.631-3.194,0.631
		c-0.992,0-1.972-0.178-2.91-0.521l1.083-2.939c0.59,0.219,1.2,0.326,1.826,0.326c0.691,0,1.367-0.135,2.006-0.395L40.664,60.301z
		 M33.126,57.189c0,1.42-1.153,2.576-2.577,2.576c-1.424,0-2.577-1.152-2.577-2.576s1.154-2.574,2.577-2.574
		C31.973,54.615,33.126,55.766,33.126,57.189z M66.525,57.852c0.59,0,1.174-0.099,1.729-0.293l1.034,2.959
		c-0.888,0.313-1.817,0.469-2.763,0.469c-1.153,0-2.276-0.229-3.336-0.688l1.244-2.878C65.098,57.706,65.802,57.852,66.525,57.852z
		 M65.216,51.858v-6.209c1.075,1.623,1.97,3.569,2.533,6.209H65.216z M70.702,57.189c0-1.424,1.153-2.574,2.571-2.574
		c1.425,0,2.58,1.15,2.58,2.574c0,1.42-1.155,2.576-2.58,2.576C71.855,59.766,70.702,58.613,70.702,57.189z M73.195,51.858
		c-2.161-12.631-10.641-13.509-10.641-21.812c0-5.583,5.057-10.111,10.641-10.111c5.587,0,10.643,4.528,10.643,10.111
		C83.838,38.35,75.357,39.228,73.195,51.858z"/>
</g>
<g id="icn_sms" class="sprite">
	<path fill="#208FDD" d="M69.345,47.841c-1.253-0.443-2.049-0.809-2.373-1.082c-0.642-0.541-0.657-1.44,0.085-1.948
		c0.386-0.258,0.928-0.389,1.607-0.389c1.225,0,2.294,0.276,3.36,0.778l0.835-2.93l-0.062-0.034
		c-1.165-0.523-2.541-0.791-4.09-0.791c-1.78,0-3.229,0.438-4.304,1.304c-1.082,0.869-1.631,1.997-1.631,3.342
		c0,2.087,1.484,3.636,4.406,4.605c0.943,0.322,1.616,0.631,2,0.933c0.768,0.608,0.737,1.68-0.06,2.219
		c-0.415,0.286-1.007,0.425-1.76,0.425c-1.448,0-2.749-0.379-4.018-1.025l-0.765,3.025c1.448,0.722,2.958,1.005,4.556,1.005
		c1.979,0,3.54-0.443,4.646-1.324c1.111-0.882,1.676-2.046,1.678-3.463c0-1.108-0.338-2.039-0.997-2.786
		C71.803,48.964,70.757,48.336,69.345,47.841z"/>
	<path fill="#208FDD" d="M37.173,47.921c-1.271-0.448-2.069-0.817-2.399-1.098c-0.683-0.575-0.698-1.539,0.09-2.077
		c0.399-0.265,0.951-0.404,1.657-0.404c1.144,0,2.247,0.247,3.309,0.739l0.789-2.768c-1.16-0.525-2.505-0.786-4.051-0.786
		c-1.773,0-3.195,0.428-4.26,1.289c-1.059,0.86-1.595,1.95-1.595,3.277c0,2.057,1.448,3.562,4.342,4.53
		c0.961,0.319,1.636,0.631,2.028,0.94c0.822,0.649,0.773,1.791-0.059,2.353c-0.436,0.294-1.039,0.443-1.812,0.443
		c-1.34,0-2.657-0.335-3.958-0.989l-0.724,2.854c1.291,0.645,2.778,0.97,4.46,0.97c1.961,0,3.492-0.434,4.589-1.305
		c1.098-0.87,1.646-2.007,1.646-3.401c0-1.087-0.325-1.995-0.974-2.727C39.603,49.029,38.577,48.418,37.173,47.921z"/>
	<path fill="#208FDD" d="M54.93,41.775l-3.242,10.467l-2.675-10.467h-4.729l-0.966,15.172h3.242l0.542-12.25h0.046
		c0,0,1.853,7.597,3.107,11.998h2.721c2.095-6.38,3.326-10.385,3.69-11.998h0.069c0,2.146,0.118,6.231,0.358,12.25h3.427
		l-0.814-15.172H54.93z"/>
	<path fill="#208FDD" d="M0,0v104h104V0H0z M41.522,74.333c-4.424,2.714-14.186,5.45-21.05,6.692
		c2.556-5.046,5.401-11.975,5.256-16.804c-3.453-4.12-5.401-9.434-5.401-14.842c0-15.252,14.94-26.405,31.664-26.405
		c16.62,0,31.664,11.07,31.664,26.405C83.656,65.348,65.892,80.263,41.522,74.333z"/>
</g>
<g id="icn_contact" class="sprite">
	<path fill="#208FDD" d="M46.66,41.886c-1.84,0-3.337,1.496-3.337,3.338s1.498,3.337,3.337,3.337c1.839,0,3.337-1.495,3.337-3.337
		S48.5,41.886,46.66,41.886z"/>
	<path fill="#208FDD" d="M34.645,41.886c-1.839,0-3.337,1.496-3.337,3.338s1.498,3.337,3.337,3.337s3.338-1.495,3.338-3.337
		S36.484,41.886,34.645,41.886z"/>
	<circle fill="#208FDD" cx="58.675" cy="45.224" r="3.337"/>
	<path fill="#208FDD" d="M0,0v104h104V0H0z M37.83,65.949c-3.73,2.289-11.964,4.602-17.753,5.647
		c2.164-4.255,4.561-10.106,4.436-14.184c-2.91-3.481-4.553-7.968-4.553-12.536c0-12.886,12.599-22.3,26.701-22.3
		c14.016,0,26.701,9.345,26.701,22.3C73.361,58.361,58.383,70.961,37.83,65.949z M83.963,81.318
		c-3.788-0.689-9.178-2.202-11.619-3.697c-8.986,2.185-16.326-0.775-20.221-5.607c12.169-1.762,22.003-9.499,25.337-19.605
		c3.953,2.616,6.581,6.652,6.581,11.414c0,2.987-1.075,5.928-2.983,8.207C80.979,74.699,82.548,78.53,83.963,81.318z"/>
</g>
<g id="icn_save" class="sprite">
	<path fill="#208FDD" d="M70.682,25.276H33.324v18.679h37.357V25.276z M68.014,41.286h-7.997V27.944h7.997V41.286z"/>
	<rect x="27.988" y="54.628" fill="#208FDD" width="48.031" height="24.016"/>
	<path fill="#208FDD" d="M0,0v104h104V0H0z M84.023,83.98H19.982V19.939h53.368l10.673,10.673V83.98z"/>
</g>
<path id="icn_prev" class="sprite" fill="#004565" d="M62.293,20.113l10.949,10.625l-21.251,21.25l21.251,21.25L62.293,83.863L30.742,51.988
	L62.293,20.113z"/>
<path id="icn_next" class="sprite" fill="#004565" d="M41.691,83.863L30.742,73.238l21.25-21.25l-21.25-21.25l10.949-10.625l31.551,31.875
	L41.691,83.863z"/>
<g id="icn_car" class="sprite">
	<circle fill="#FFFFFF" cx="32.75" cy="61.536" r="6.615"/>
	<circle fill="#FFFFFF" cx="70.75" cy="61.536" r="6.615"/>
	<path fill="#FFFFFF" d="M33.522,40.851l-2.84,9.703c-0.005,0.016,0.519-1.775,0.515-1.76l-8.204,1.805c-1.65,0-3,1.35-3,3v4.938
		c0,1.65,1.35,3,3,3h0.893c0-4.896,3.969-8.865,8.865-8.865s8.865,3.969,8.865,8.865h20.269c0-4.896,3.969-8.865,8.865-8.865
		s8.865,3.969,8.865,8.865h1.393c1.65,0,3-1.35,3-3v-4.938c0-1.65-1.35-3-3-3l-12.373-1.891l-3.234-9.09
		c-0.352-1.042-1.539-1.859-2.639-1.816l-26.679,1.051C34.983,38.896,33.831,39.795,33.522,40.851z M48.51,48.161c0,1.1-0.9,2-2,2
		h-9.562c-1.1,0-1.807-0.879-1.57-1.953l1.078-4.906c0.236-1.074,1.329-1.982,2.429-2.018l7.627-0.246
		c1.1-0.035,1.999,0.836,1.999,1.936V48.161z M63.26,49.692h-9.938c-1.099,0-2-0.9-2-2v-4.688c0-1.1,0.898-2.04,1.998-2.088
		l7.301-0.324c1.1-0.048,2.248,0.777,2.551,1.834l1.535,5.344C65.012,48.827,64.359,49.692,63.26,49.692z"/>
</g>
<g id="icn_truck" class="sprite">
	<circle fill="#FFFFFF" cx="32.75" cy="64.849" r="6.615"/>
	<circle fill="#FFFFFF" cx="47.75" cy="64.849" r="6.615"/>
	<circle fill="#FFFFFF" cx="70.75" cy="64.849" r="6.615"/>
	<path fill="#FFFFFF" d="M81.008,45.411h-1.502v-9.875c0-1.65-1.35-3-3-3H65.008c-1.65,0-3,1.35-3,3l0.064,18.438l-39.08-0.062
		c-1.65,0-3,1.351-3,3v4.938c0,1.649,1.35,3,3,3h0.893c0-4.896,3.969-8.865,8.865-8.865c3.162,0,5.931,1.661,7.5,4.153
		c1.569-2.492,4.338-4.153,7.5-4.153c4.896,0,8.865,3.97,8.865,8.865h5.27c0-4.896,3.969-8.865,8.865-8.865s8.865,3.97,8.865,8.865
		h1.393c1.65,0,3-1.351,3-3v-4.651v-0.286v-8.5C84.008,46.761,82.658,45.411,81.008,45.411z M76.365,43.745v0.666v3h-3H72.75h-0.057
		h-0.449H69.75v-3v-3.298V40.08v-1.668v-3h3h0.309h0.307c1.65,0,3,1.35,3,3V43.745z"/>
	<path fill="#FFFFFF" d="M43.01,50.974h14c1.1,0,2-0.9,2-2v-10.5c0-1.1-0.9-2-2-2h-14c-1.1,0-2,0.9-2,2v10.5
		C41.01,50.074,41.911,50.974,43.01,50.974z"/>
	<path fill="#FFFFFF" d="M22.01,50.974h14c1.1,0,2-0.9,2-2v-10.5c0-1.1-0.9-2-2-2h-14c-1.1,0-2,0.9-2,2v10.5
		C20.01,50.074,20.911,50.974,22.01,50.974z"/>
</g>
<g id="icn_bus" class="sprite">
	<circle fill="#FFFFFF" cx="32.75" cy="65.824" r="6.615"/>
	<circle fill="#FFFFFF" cx="47.75" cy="65.824" r="6.615"/>
	<circle fill="#FFFFFF" cx="70.75" cy="65.824" r="6.615"/>
	<path fill="#FFFFFF" d="M81.007,46.387h-1.502v-9.875c0-1.65-1.35-3-3-3H65.008c-0.063,0-0.124,0.015-0.187,0.019
		c-0.062-0.004-0.123-0.019-0.187-0.019H22.992c-1.65,0-3,1.35-3,3v16.875v4.5v4.938c0,1.65,1.35,3,3,3h0.893
		c0-4.896,3.969-8.865,8.865-8.865c3.162,0,5.931,1.661,7.5,4.153c1.569-2.492,4.338-4.153,7.5-4.153
		c4.896,0,8.865,3.969,8.865,8.865h5.27c0-4.896,3.969-8.865,8.865-8.865s8.865,3.969,8.865,8.865h1.392c1.65,0,3-1.35,3-3v-4.651
		v-0.286v-8.5C84.007,47.736,82.657,46.387,81.007,46.387z M31.76,39.387v0.084v1.75v3h-3h-2.75h-0.125H23.01v-4.75l0,0v-0.084
		c0-1.607,1.284-2.92,2.875-2.987v-0.013h0.125h2.75h3V39.387z M42.76,44.221h-8.75v-7.834h8.75V44.221z M53.76,44.221h-8.75v-7.834
		h8.75V44.221z M64.76,44.221h-8.75v-7.834h8.75V44.221z M76.365,44.721v0.666v3h-3H72.75h-0.057h-0.449H69.75v-3v-3.298v-1.034
		v-1.668v-3h3h0.308h0.308c1.65,0,3,1.35,3,3V44.721z"/>
</g>
<g id="icn_train" class="sprite">
	<circle fill="#FFFFFF" cx="30.131" cy="66.072" r="4.748"/>
	<circle fill="#FFFFFF" cx="41.131" cy="66.072" r="4.748"/>
	<circle fill="#FFFFFF" cx="52.131" cy="66.072" r="4.748"/>
	<circle fill="#FFFFFF" cx="63.131" cy="66.072" r="4.748"/>
	<circle fill="#FFFFFF" cx="74.131" cy="66.072" r="4.748"/>
	<rect x="27.896" y="64.523" fill="#FFFFFF" width="43.773" height="1.549"/>
	<rect x="19.981" y="71.941" fill="#FFFFFF" width="64.015" height="1.789"/>
	<path fill="#FFFFFF" d="M83.431,54.559l-2.626-13.691c-0.312-1.62-1.915-2.946-3.565-2.946h-4.195c-0.095,0-0.185,0.02-0.277,0.028
		c-0.093-0.009-0.183-0.028-0.277-0.028h-5.313v-4.236h2.496V32.22h-6.621v0.007H56.85v1.465h2.496v4.229H22.981c-1.65,0-3,1.35-3,3
		v13.584v2.229v6.438c0,1.65,1.35,3,3,3h0.926c-0.001-0.033-0.006-0.065-0.006-0.099c0-3.44,2.789-6.229,6.229-6.229
		c2.384,0,4.453,1.34,5.5,3.307c1.048-1.967,3.116-3.307,5.5-3.307s4.453,1.34,5.5,3.307c1.048-1.967,3.116-3.307,5.5-3.307
		s4.452,1.34,5.5,3.307c1.048-1.967,3.116-3.307,5.5-3.307s4.452,1.34,5.5,3.307c1.048-1.967,3.116-3.307,5.5-3.307
		c3.44,0,6.229,2.789,6.229,6.229c0,0.033-0.005,0.065-0.005,0.099h0.641c1.65,0,3-1.35,3-3v-6.438L83.431,54.559z M60.975,33.691
		h2.496v-0.007h2.076v4.236h-4.572V33.691z M32.653,45.274c0,1.649-1.35,3-3,3h-3.692c-1.649,0-3-1.351-3-3v-1.057
		c0-1.65,1.351-3,3-3h3.692c1.65,0,3,1.35,3,3V45.274z M43.653,45.274c0,1.649-1.35,3-3,3h-3.692c-1.649,0-3-1.351-3-3v-1.057
		c0-1.65,1.351-3,3-3h3.692c1.65,0,3,1.35,3,3V45.274z M54.653,45.274c0,1.649-1.35,3-3,3h-3.692c-1.649,0-3-1.351-3-3v-1.057
		c0-1.65,1.351-3,3-3h3.692c1.65,0,3,1.35,3,3V45.274z M65.653,45.274c0,1.649-1.35,3-3,3h-3.692c-1.65,0-3-1.351-3-3v-1.057
		c0-1.65,1.35-3,3-3h3.692c1.65,0,3,1.35,3,3V45.274z M76.653,45.274c0,1.649-1.35,3-3,3h-3.692c-1.65,0-3-1.351-3-3v-1.057
		c0-1.65,1.35-3,3-3h3.692c1.65,0,3,1.35,3,3V45.274z"/>
</g>
<g id="icn_boat" class="sprite">
	<path fill="#FFFFFF" d="M82.684,70.578H21.326c-1.125,0-1.533,0.59-0.906,1.311l9.363,10.793c0.625,0.723,2.057,1.312,3.182,1.312
		h37.783c1.123,0,2.566-0.586,3.201-1.301l9.623-10.814C84.207,71.164,83.809,70.578,82.684,70.578z"/>
	<path fill="#FFFFFF" d="M22.669,57.838h22.956c1.101,0,2-0.926,2-2.059v-27c0-1.132-0.599-1.367-1.33-0.522L22,56.301
		C21.268,57.146,21.568,57.838,22.669,57.838z"/>
	<path fill="#FFFFFF" d="M54,65.645h26.958c1.1,0,1.493-0.766,0.873-1.701L69.604,45.485c-0.62-0.936-1.634-2.466-2.254-3.402
		L53.127,20.615C52.508,19.68,52,19.841,52,20.973v42.613C52,64.717,52.9,65.645,54,65.645z"/>
	<path fill="#FFFFFF" d="M50.746,70.811l-7.482-7.359c-1.193-1.172-3.52-2.133-5.169-2.133h-5.821c-1.649,0-3,1.391-3,3.088v5.449
		c0,1.699,1.351,3.088,3,3.088h17.643C51.566,72.943,51.939,71.984,50.746,70.811z M31.875,68.592
		c-0.045-0.213-0.072-0.432-0.072-0.658v-1.605c0-1.697,1.35-3.088,3-3.088h1.911c1.649,0,3.976,0.961,5.169,2.135l3.271,3.217
		H31.875z"/>
</g>
<g id="icn_motorbike" class="sprite">
	<path fill="#FFFFFF" d="M59.71,45.217l-5.911-1.883c-3.608-1.149-7.501,0.865-8.649,4.473l-0.27,0.849L27.96,43.988
		c-2.714-0.748-5.418,0.475-6.041,2.73c-0.479,1.735,0.422,3.568,2.095,4.667c1.942-1.343,4.294-2.133,6.834-2.133
		c3.981,0,7.506,1.937,9.697,4.917l-9.911,3.619c-2.033,0.742-3.178,2.767-2.545,4.502c0.634,1.733,2.815,2.544,4.848,1.801
		l9.934-3.628c0.759,1.787,2.256,3.251,4.24,3.883l5.911,1.881c3.608,1.149,7.501-0.864,8.65-4.473l2.511-7.887
		C65.332,50.259,63.318,46.366,59.71,45.217z"/>
	<path fill="#FFFFFF" d="M75.967,59.019L70.57,48.718c0.558,0.141,1.149,0.187,1.755,0.104l1.093-0.148l-1.256-9.27l-1.094,0.148
		c-1.764,0.239-3.144,1.442-3.729,2.999l-1.988-3.791c-1.004-1.917-2.854-2.946-4.113-2.287c-0.673,0.353-1.034,1.125-1.081,2.057
		h-2.29c-0.784,0-1.422,0.636-1.422,1.422c0,0.784,0.638,1.421,1.422,1.421h3.023l10.504,20.042
		c1.004,1.917,2.855,2.947,4.112,2.288C76.765,63.041,76.971,60.934,75.967,59.019z"/>
	<circle fill="none" stroke="#FFFFFF" stroke-width="4" cx="30.848" cy="61.291" r="8.387"/>
	<circle fill="none" stroke="#FFFFFF" stroke-width="4" cx="73.799" cy="61.291" r="8.387"/>
</g>
<g id="icn_plain" class="sprite">
	<path fill="#FFFFFF" d="M64.405,48.252l-18.652,6.279c-1.664,0.561-2.596,2.297-2.068,3.861l5.543,16.465
		c0.526,1.564,2.318,2.386,3.982,1.825l7.31-2.461c1.664-0.56,3.228-2.37,3.474-4.021l2.988-19.963
		C67.228,48.586,66.069,47.691,64.405,48.252z"/>
	<path fill="#FFFFFF" d="M84.086,39.638c-1.143-3.395-6.301-4.618-11.462-2.718L35.812,50.462l-8.974-5.423
		c-1.553-0.939-4.09-1.088-5.637-0.333c-1.547,0.755-2.219,2.586-1.495,4.068l4.038,8.272c0.057,0.114,0.141,0.21,0.218,0.31
		c-0.606,0.995-0.827,1.975-0.54,2.828c0.851,2.526,5.845,3.263,11.098,1.633l8.147-2.527l-0.381-1.131
		c-0.628-1.863,0.384-3.9,2.248-4.527l20.896-7.035c1.863-0.627,3.188,0.456,2.945,2.407l-0.3,2.411l8.536-2.646
		C81.864,47.139,85.229,43.03,84.086,39.638z M77.795,43.23c-0.061,0.02-0.12,0.029-0.181,0.047l0.004,0.012l-3.769,1.269
		l-1.676-4.977l3.769-1.269l0.004,0.011c0.061-0.022,0.113-0.05,0.174-0.071c2.17-0.73,4.322-0.208,4.783,1.16
		C81.364,40.781,79.965,42.499,77.795,43.23z"/>
	<path fill="#FFFFFF" d="M39.831,47.677l7.728-2.602l12.69-4.668l-9.726-9.483c-1.194-1.167-3.534-1.663-5.198-1.102l-7.311,2.461
		c-1.664,0.56-2.594,2.297-2.066,3.861L39.831,47.677z"/>
</g>
<g id="icn_to" class="sprite">
	<path fill="#FFFFFF" d="M52,19.939c-11.203,0-21.348,9.079-21.348,20.285c0,16.663,17.017,18.422,21.348,43.759
		c4.33-25.337,21.348-27.096,21.348-43.759C73.348,29.018,63.205,19.939,52,19.939z M52,49.292c-4.422,0-8.005-3.583-8.005-8.005
		c0-4.422,3.581-8.005,8.005-8.005c4.426,0,8.006,3.583,8.006,8.005C60.006,45.709,56.422,49.292,52,49.292z"/>
	<polygon fill="#FFFFFF" points="28.333,63.679 33.596,68.965 19.982,68.965 19.982,74.965 33.596,74.965 28.301,80.281 
		32.02,83.98 43.982,71.965 32.05,59.98 	"/>
</g>
<g id="icn_from" class="sprite">
	<path fill="#FFFFFF" d="M52,19.939c-11.203,0-21.348,9.079-21.348,20.285c0,16.663,17.017,18.422,21.348,43.759
		c4.33-25.337,21.348-27.096,21.348-43.759C73.348,29.018,63.205,19.939,52,19.939z M52,49.292c-4.422,0-8.005-3.583-8.005-8.005
		c0-4.422,3.581-8.005,8.005-8.005c4.426,0,8.006,3.583,8.006,8.005C60.006,45.709,56.422,49.292,52,49.292z"/>
	<polygon fill="#FFFFFF" points="72.065,59.98 68.349,63.679 73.61,68.965 59.997,68.965 59.997,74.965 73.61,74.965 68.315,80.281 
		72.034,83.98 83.997,71.965 	"/>
</g>

<path id="icn_password" class="sprite" fill="#FFFFFF" d="M53.201,66.219l-6.531,7.096h-5.329v5.328h-5.329v5.329H20.027V70.65
	l18.291-18.515C41.196,58.593,46.564,63.688,53.201,66.219z M83.971,41.343c0,11.771-9.544,21.314-21.314,21.314
	c-11.771,0-21.314-9.544-21.314-21.314c0-11.771,9.543-21.314,21.314-21.314C74.427,20.028,83.971,29.572,83.971,41.343z
	 M75.978,33.35c0-2.941-2.389-5.328-5.328-5.328c-2.94,0-5.329,2.387-5.329,5.328s2.389,5.329,5.329,5.329
	C73.589,38.679,75.978,36.291,75.978,33.35z"/>
<path id="icn_captcha" class="sprite" fill="#FFFFFF" d="M51.999,19.818c-8.032,8.032-20.076,10.727-29.5,10.727
	c0,23.018,13.592,43.171,29.5,53.636c15.907-10.465,29.5-30.618,29.5-53.636C72.076,30.545,60.031,27.851,51.999,19.818z"/>
<path id="icn_login" class="sprite" fill="#208FDD" d="M-9-10.25V116h132.5V-10.25H-9z M20.278,59.93V44.07h21.147V33.496L62.572,52L41.425,70.504V59.93H20.278z
	 M57.286,78.434c-4.725,0-9.146-1.254-12.982-3.42l0.602-0.529l3.689-3.227c2.654,1.203,5.591,1.89,8.692,1.89
	c11.66,0,21.146-9.487,21.146-21.147s-9.486-21.147-21.146-21.147c-3.101,0-6.038,0.687-8.692,1.892l-3.689-3.227l-0.602-0.529
	c3.836-2.17,8.258-3.423,12.982-3.423C71.881,25.566,83.72,37.401,83.72,52C83.72,66.601,71.881,78.434,57.286,78.434z"/>
<path id="icn_facebook" class="sprite" fill="#FFFFFF" d="M19.968,19.969V83.97h64.001V19.969H19.968z M62.635,38.635h-5.127
	c-1.644,0-2.873,0.672-2.873,2.372v2.962h8l-0.638,8h-7.362v21.333h-8V51.969h-5.333v-8h5.333v-5.128
	c0-5.392,2.838-8.206,9.229-8.206h6.771V38.635z"/>
<path id="icn_twitter" class="sprite" fill="#FFFFFF" d="M19.938,19.938V84H84V19.938H19.938z M70.283,44.593
	c0.559,12.323-8.633,26.066-24.901,26.066c-4.95,0-9.554-1.449-13.433-3.937c4.65,0.548,9.291-0.743,12.971-3.629
	c-3.834-0.072-7.07-2.606-8.183-6.084c1.374,0.261,2.724,0.183,3.954-0.15c-4.212-0.845-7.121-4.643-7.027-8.702
	c1.181,0.657,2.534,1.05,3.967,1.095c-3.899-2.606-5.005-7.757-2.711-11.697c4.322,5.3,10.776,8.788,18.06,9.153
	c-1.278-5.478,2.88-10.755,8.537-10.755c2.521,0,4.796,1.062,6.394,2.769c1.997-0.393,3.874-1.121,5.568-2.125
	c-0.657,2.046-2.047,3.763-3.853,4.847c1.772-0.214,3.461-0.685,5.03-1.38C73.484,41.814,71.996,43.357,70.283,44.593z"/>
<path id="icn_soundcloud" class="sprite" fill="#FFFFFF" d="M20,20v64h64V20H20z M32.445,61.396
	c-1.081-0.971-1.779-2.406-1.779-4.031c0-1.619,0.698-3.055,1.779-4.031V61.396z M36,62.667c-0.648,0-0.984,0.008-1.779-0.245V52.31
	c0.841-0.269,1.24-0.258,1.779-0.216V62.667z M39.555,62.667h-1.776V52.594l0.549,0.32c0.242-1,0.674-1.914,1.229-2.727v12.479
	H39.555z M43.112,62.667h-1.778V48.326c0.549-0.412,1.135-0.763,1.778-1.005V62.667z M46.667,62.667h-1.778V46.922
	c0.669-0.073,0.875-0.125,1.778,0.016V62.667z M50.221,62.667h-1.778V47.466l0.674,0.328c0.318-0.552,0.695-1.055,1.104-1.523
	V62.667z M68.161,62.667H52V44.672c1.419-0.977,3.094-1.56,4.909-1.56c4.825,0,8.734,3.984,9.096,9.029
	c3.475-1.701,7.328,1.031,7.328,5.005C73.333,60.192,71.016,62.667,68.161,62.667z"/>
<path id="icn_github" class="sprite" fill="#FFFFFF" d="M20,19.999v64h64v-64H20z M58.758,72.238c-1.083,0.209-1.425-0.455-1.425-1.023v-5.854
	c0-1.992-0.697-3.289-1.466-3.951c4.753-0.525,9.742-2.333,9.742-10.523c0-2.331-0.828-4.234-2.198-5.726
	c0.225-0.539,0.953-2.709-0.208-5.646c0,0-1.792-0.573-5.862,2.188c-1.703-0.48-3.528-0.712-5.341-0.723
	c-1.812,0.008-3.638,0.242-5.341,0.717c-4.075-2.76-5.867-2.188-5.867-2.188c-1.156,2.939-0.427,5.107-0.203,5.648
	c-1.367,1.494-2.198,3.395-2.198,5.725c0,8.172,4.979,10.002,9.719,10.544c-0.609,0.534-1.162,1.472-1.354,2.852
	c-1.219,0.547-4.305,1.487-6.208-1.776c0,0-1.127-2.047-3.271-2.197c0,0-2.081-0.026-0.148,1.297c0,0,1.401,0.656,2.373,3.119
	c0,0,1.234,3.811,7.167,2.519v3.972c0,0.562-0.344,1.224-1.406,1.025c-8.481-2.817-14.594-10.814-14.594-20.239
	c0-11.784,9.552-21.333,21.333-21.333s21.333,9.55,21.333,21.333C73.333,61.421,67.229,69.416,58.758,72.238z"/>
<g id="icn_newuser" class="sprite">
	<path fill="#208FDD" d="M-8.1-18v125h122.75V-18H-8.1z M80.972,67.875C80.972,75.123,75.095,81,67.847,81
		s-13.125-5.877-13.125-13.125S60.599,54.75,67.847,54.75S80.972,60.627,80.972,67.875z M52,20.028
		c10.301,0,18.65,8.35,18.65,18.653c0,5.208-2.14,9.913-5.583,13.296c-3.537,0.616-6.671,2.38-9.016,4.899
		c-1.306,0.289-2.658,0.454-4.052,0.454c-10.301,0-18.65-8.352-18.65-18.65C33.35,28.378,41.699,20.028,52,20.028z M67.847,83.972
		H20.028c0-6.515,6.718-21.388,17.565-26.164c4.02,3.028,9,4.853,14.407,4.853c0.202,0,0.398-0.021,0.6-0.025
		c-0.56,1.637-0.878,3.386-0.878,5.212C51.722,76.752,58.941,83.972,67.847,83.972c6.046,0,11.307-3.332,14.067-8.256
		c1.333,3.215,2.058,6.174,2.058,8.256H67.847z"/>
	<polygon fill="#208FDD" points="65.659,60.219 65.659,65.688 60.19,65.688 60.19,70.062 65.659,70.062 65.659,75.531 
		70.034,75.531 70.034,70.062 75.503,70.062 75.503,65.688 70.034,65.688 70.034,60.219 	"/>
</g>
<path id="icn_skype" class="sprite" fill="#FFFFFF" d="M20.026,20.027v63.945h63.945V20.027H20.026z M55.704,71.588
	C42.026,74.197,30,62.236,32.464,48.477c-6.338-10.305,5.529-22.361,15.869-16.039c13.563-2.544,25.595,9.26,23.186,23.054
	C77.891,65.793,66.06,77.866,55.704,71.588z M63.411,57.017c0,5.399-4.304,8.935-10.728,8.935c-5.652,0-11.329-2.57-11.3-6.999
	c0.005-1.332,0.999-2.561,2.321-2.561c3.328,0,3.296,4.965,8.591,4.965c3.721,0,4.991-2.034,4.991-3.452
	c0-5.126-16.064-1.985-16.064-11.624c0-5.215,4.267-8.815,10.978-8.421c6.398,0.378,10.147,3.203,10.51,5.843
	c0.177,1.725-0.963,3.067-2.945,3.067c-2.894,0-3.19-3.874-8.17-3.874c-2.251,0-4.147,0.938-4.147,2.974
	C47.443,50.124,63.411,47.655,63.411,57.017z"/>
<path id="icn_sms2" class="sprite" fill="#FFFFFF" d="M51.999,23.151c-16.622,0-31.472,11.083-31.472,26.245c0,5.376,1.939,10.657,5.368,14.752
	c0.145,4.8-2.683,11.687-5.226,16.701c6.824-1.234,16.526-3.954,20.923-6.651c24.222,5.894,41.878-8.931,41.878-24.802
	C83.471,34.152,68.519,23.151,51.999,23.151z M39.662,55.867c-1.091,0.866-2.613,1.296-4.562,1.296c-1.673,0-3.15-0.322-4.434-0.963
	l0.72-2.838c1.293,0.65,2.602,0.983,3.934,0.983c0.768,0,1.368-0.148,1.8-0.44c0.827-0.558,0.876-1.693,0.059-2.338
	c-0.389-0.308-1.061-0.618-2.016-0.935c-2.876-0.963-4.316-2.458-4.316-4.502c0-1.319,0.533-2.404,1.585-3.259
	c1.058-0.853,2.472-1.279,4.234-1.279c1.537,0,2.874,0.259,4.026,0.781l-0.784,2.75c-1.053-0.49-2.151-0.733-3.291-0.733
	c-0.699,0-1.247,0.136-1.644,0.401c-0.784,0.535-0.769,1.493-0.09,2.064c0.328,0.279,1.122,0.646,2.384,1.091
	c1.396,0.494,2.416,1.101,3.061,1.831c0.645,0.728,0.968,1.629,0.968,2.71C41.298,53.872,40.753,55.002,39.662,55.867z
	 M57.07,56.917c-0.238-5.982-0.356-10.042-0.356-12.174h-0.069c-0.36,1.602-1.585,5.582-3.667,11.923h-2.705
	c-1.248-4.374-3.089-11.923-3.089-11.923h-0.046L46.6,56.917h-3.222l0.96-15.08h4.7l2.659,10.403l3.222-10.403h4.748l0.81,15.08
	H57.07z M71.666,55.929c-1.099,0.876-2.65,1.316-4.615,1.316c-1.59,0-3.091-0.281-4.53-0.999l0.761-3.007
	c1.26,0.644,2.553,1.02,3.992,1.02c0.748,0,1.337-0.138,1.75-0.423c0.791-0.535,0.822-1.6,0.059-2.205
	c-0.382-0.3-1.05-0.607-1.987-0.927c-2.904-0.963-4.38-2.502-4.38-4.577c0-1.337,0.546-2.459,1.621-3.322
	c1.068-0.86,2.508-1.296,4.277-1.296c1.539,0,2.907,0.265,4.064,0.787l0.062,0.032l-0.83,2.914c-1.06-0.498-2.123-0.773-3.34-0.773
	c-0.676,0-1.214,0.132-1.598,0.388c-0.737,0.503-0.723,1.397-0.085,1.935c0.323,0.271,1.114,0.635,2.359,1.076
	c1.403,0.492,2.443,1.117,3.097,1.852c0.655,0.743,0.991,1.667,0.991,2.769C73.331,53.896,72.771,55.053,71.666,55.929z"/>
<g id="icn_whatsapp" class="sprite">
	<path display="inline" fill="#FFFFFF" d="M19.96,19.959V84h64.011V19.959H19.96z M52.362,70.922c-3.435,0-6.661-0.877-9.468-2.418
		L32.049,71.95l3.536-10.427c-1.784-2.931-2.811-6.364-2.811-10.038c0-10.735,8.771-19.437,19.588-19.437
		c10.82,0,19.588,8.702,19.588,19.437C71.95,62.222,63.182,70.922,52.362,70.922z"/>
	<path display="inline" fill="#FFFFFF" d="M52.362,35.145c-9.081,0-16.468,7.331-16.468,16.341c0,3.577,1.166,6.887,3.137,9.582
		l-2.058,6.068l6.329-2.012c2.6,1.707,5.716,2.703,9.06,2.703c9.08,0,16.47-7.329,16.47-16.34
		C68.832,42.477,61.443,35.145,52.362,35.145z M61.975,58.229c-0.402,1.112-2.362,2.185-3.242,2.264
		c-0.881,0.08-0.881,0.717-5.762-1.19c-4.881-1.908-7.962-6.875-8.202-7.192c-0.241-0.317-1.96-2.583-1.96-4.927
		c0-2.344,1.24-3.497,1.68-3.974c0.44-0.477,0.961-0.596,1.281-0.596c0.32,0,0.641,0.04,0.92,0.04c0.281,0,0.68-0.159,1.081,0.794
		c0.4,0.954,1.361,3.298,1.48,3.536c0.121,0.239,0.201,0.517,0.04,0.835c-0.159,0.318-0.239,0.516-0.48,0.794
		c-0.239,0.278-0.503,0.621-0.72,0.834c-0.24,0.238-0.49,0.495-0.21,0.972c0.28,0.478,1.244,2.037,2.671,3.299
		c1.835,1.622,3.381,2.126,3.86,2.364c0.481,0.238,0.761,0.198,1.041-0.12c0.281-0.318,1.201-1.391,1.521-1.867
		c0.32-0.477,0.642-0.397,1.082-0.239c0.438,0.159,2.8,1.312,3.28,1.55c0.479,0.238,0.799,0.358,0.92,0.557
		C62.374,56.161,62.374,57.114,61.975,58.229z"/>
</g>

<path id="icn_comment2" class="sprite" fill="#004565" d="M19.96,22.959v45.153h10.636v13.347L49.21,68.112h34.568V22.959H19.96z M54.528,54.869
	H33.256v-2.66h21.272V54.869z M70.483,46.891H33.256v-2.659h37.228V46.891z M70.483,38.914H33.256v-2.659h37.228V38.914z"/>
<g id="icn_comment" class="sprite" >
	<rect x="33.256" y="44.232" fill="#208FDD" width="37.228" height="2.659"/>
	<rect x="33.256" y="36.255" fill="#208FDD" width="37.228" height="2.659"/>
	<rect x="33.256" y="52.209" fill="#208FDD" width="21.272" height="2.66"/>
	<path fill="#208FDD" d="M-11.25-8.5v130.75h120V-8.5H-11.25z M83.778,68.112H49.21L30.597,81.459V68.112H19.96V22.959h63.818
		V68.112z"/>
</g>


<g id="icn_place0" class="sprite">
	<g id="place0" display="inline" opacity="0.5">
		<g>
			<path fill="#FFFFFF" d="M46.947,31.185c-1.838,0-3.412,0.68-4.741,1.991c-1.333,1.371-2.019,2.966-2.019,4.743V54.34
				c0,0.615,0.21,1.172,0.686,1.621c0.439,0.445,0.986,0.646,1.607,0.646c0.714,0,1.261-0.201,1.699-0.646
				c0.382-0.449,0.583-1.006,0.583-1.621V39.656h1.187v40.652c0,0.781,0.344,1.506,0.993,2.062c0.611,0.615,1.324,0.879,2.145,0.879
				c0.89,0,1.603-0.262,2.185-0.879c0.615-0.557,0.895-1.279,0.895-2.062V56.742h1.328v23.566c0,0.781,0.308,1.506,0.886,2.062
				c0.582,0.615,1.334,0.879,2.254,0.879c0.78,0,1.465-0.262,2.081-0.879c0.576-0.557,0.84-1.279,0.84-2.062V39.656h1.242V54.34
				c0,0.615,0.195,1.172,0.605,1.621c0.489,0.445,1.056,0.646,1.672,0.646c0.722,0,1.27-0.201,1.681-0.646
				c0.37-0.449,0.606-1.006,0.606-1.621V37.92c0-1.771-0.646-3.373-1.979-4.738c-1.301-1.317-2.859-1.991-4.771-1.991H46.947V31.185
				z"/>
			<path fill="#FFFFFF" d="M52.811,29.834c1.432,0,2.696-0.472,3.714-1.457c1.018-1.011,1.536-2.262,1.536-3.768
				c0-1.437-0.524-2.668-1.54-3.685c-1.021-1.046-2.281-1.566-3.71-1.566c-1.505,0-2.771,0.521-3.724,1.566
				c-1.016,1.017-1.495,2.248-1.495,3.685c0,1.51,0.479,2.76,1.495,3.768C50.046,29.363,51.311,29.834,52.811,29.834z"/>
		</g>
		<g>
			<path fill="#FFFFFF" d="M20.721,62.614v18.413c0,0.723-0.238,1.322-0.686,1.756c-0.448,0.45-1.033,0.668-1.75,0.668
				c-0.727,0-1.346-0.218-1.826-0.668c-0.514-0.434-0.748-1.033-0.748-1.756V62.614h-6.9l7.178-24.237h-1.233
				c-0.788,2.717-1.45,4.903-1.97,6.637c-0.467,1.726-0.986,3.364-1.436,4.939c-0.512,1.558-0.857,2.543-0.891,2.878
				c-0.312,1.03-0.994,1.529-2.061,1.529l-0.543-0.133c-0.995-0.368-1.48-1.012-1.48-1.928c0-0.252,0.035-0.458,0.135-0.665
				c0.072-0.178,0.278-0.786,0.52-1.82c0.277-1.025,0.649-2.299,1.098-3.78c0.447-1.505,0.932-3.135,1.439-4.884
				c0.518-1.758,0.993-3.449,1.576-5.079c0.344-1.25,1.1-2.388,2.268-3.372c1.163-1.02,2.373-1.484,3.636-1.484h8.443
				c1.306,0,2.574,0.464,3.708,1.484c1.102,0.988,1.894,2.121,2.335,3.372c0.473,1.63,0.957,3.321,1.434,5.079
				c0.489,1.749,1.003,3.378,1.417,4.884c0.438,1.482,0.82,2.755,1.091,3.78c0.274,1.034,0.45,1.642,0.547,1.82l0.134,0.544
				c0,1.108-0.519,1.756-1.512,2.042l-0.507,0.14c-1.094,0-1.781-0.501-2.056-1.529c-0.075-0.335-0.383-1.322-0.789-2.878
				c-0.479-1.575-0.968-3.213-1.517-4.939c-0.549-1.729-1.192-3.919-1.979-6.641h-1.239l7.167,24.244h-6.787v18.411
				c0,0.723-0.207,1.324-0.755,1.756c-0.484,0.452-1.067,0.668-1.783,0.668c-0.755,0-1.311-0.218-1.782-0.668
				c-0.448-0.432-0.65-1.033-0.65-1.756V62.614H20.721z"/>
			<path fill="#FFFFFF" d="M21.4,29.701c1.445,0,2.685-0.475,3.646-1.466c0.991-1.013,1.51-2.272,1.51-3.792
				c0-1.445-0.519-2.685-1.51-3.708c-0.955-1.052-2.2-1.576-3.646-1.576c-1.539,0-2.816,0.524-3.878,1.576
				c-1.027,1.019-1.534,2.263-1.534,3.708c0,1.52,0.507,2.778,1.539,3.792C18.592,29.226,19.865,29.701,21.4,29.701z"/>
		</g>
		<g>
			<path fill="#FFFFFF" d="M82.191,63.114v18.413c0,0.723-0.238,1.322-0.686,1.756c-0.448,0.45-1.033,0.668-1.75,0.668
				c-0.727,0-1.346-0.218-1.826-0.668c-0.514-0.434-0.748-1.033-0.748-1.756V63.114h-6.9l7.178-24.237h-1.233
				c-0.788,2.717-1.45,4.903-1.97,6.637c-0.467,1.726-0.986,3.364-1.436,4.939c-0.512,1.558-0.857,2.543-0.891,2.878
				c-0.312,1.03-0.994,1.529-2.061,1.529l-0.543-0.133c-0.995-0.368-1.48-1.012-1.48-1.928c0-0.253,0.035-0.458,0.135-0.665
				c0.072-0.178,0.278-0.786,0.52-1.82c0.277-1.025,0.649-2.299,1.098-3.78c0.447-1.505,0.932-3.135,1.439-4.884
				c0.518-1.758,0.993-3.449,1.576-5.079c0.344-1.25,1.1-2.388,2.268-3.372c1.163-1.02,2.373-1.484,3.636-1.484h8.443
				c1.306,0,2.574,0.464,3.708,1.484c1.102,0.988,1.894,2.121,2.335,3.372c0.473,1.63,0.957,3.321,1.434,5.079
				c0.489,1.749,1.003,3.378,1.417,4.884c0.438,1.482,0.82,2.755,1.091,3.78c0.274,1.034,0.45,1.642,0.547,1.82l0.134,0.544
				c0,1.108-0.519,1.756-1.512,2.042l-0.507,0.14c-1.094,0-1.781-0.501-2.056-1.529c-0.075-0.335-0.383-1.322-0.789-2.878
				c-0.479-1.575-0.968-3.213-1.517-4.939c-0.549-1.729-1.192-3.919-1.979-6.641h-1.239l7.167,24.244h-6.787v18.411
				c0,0.723-0.207,1.324-0.755,1.756c-0.484,0.452-1.067,0.668-1.783,0.668c-0.755,0-1.311-0.218-1.782-0.668
				c-0.448-0.432-0.65-1.033-0.65-1.756V63.114H82.191z"/>
			<path fill="#FFFFFF" d="M82.871,30.201c1.445,0,2.685-0.475,3.646-1.466c0.991-1.013,1.51-2.272,1.51-3.792
				c0-1.445-0.519-2.685-1.51-3.708c-0.955-1.052-2.2-1.576-3.646-1.576c-1.539,0-2.816,0.524-3.878,1.576
				c-1.027,1.019-1.534,2.263-1.534,3.708c0,1.52,0.507,2.778,1.539,3.792C80.062,29.726,81.336,30.201,82.871,30.201z"/>
		</g>
		<g opacity="0.5">
			<path fill="#FFFFFF" d="M32.01,30.935c-1.838,0-3.412,0.68-4.741,1.991c-1.333,1.371-2.019,2.966-2.019,4.743V54.09
				c0,0.615,0.21,1.172,0.686,1.621c0.439,0.445,0.986,0.646,1.607,0.646c0.714,0,1.261-0.201,1.699-0.646
				c0.382-0.449,0.583-1.006,0.583-1.621V39.406h1.187v40.652c0,0.781,0.344,1.506,0.993,2.062C32.616,82.736,33.329,83,34.149,83
				c0.89,0,1.603-0.262,2.185-0.879c0.615-0.557,0.895-1.279,0.895-2.062V56.492h1.328v23.566c0,0.781,0.308,1.506,0.886,2.062
				C40.024,82.736,40.776,83,41.696,83c0.78,0,1.465-0.262,2.081-0.879c0.576-0.557,0.84-1.279,0.84-2.062V39.406h1.242V54.09
				c0,0.615,0.195,1.172,0.605,1.621c0.489,0.445,1.056,0.646,1.672,0.646c0.722,0,1.27-0.201,1.681-0.646
				c0.37-0.449,0.606-1.006,0.606-1.621V37.67c0-1.771-0.646-3.373-1.979-4.738c-1.301-1.317-2.859-1.991-4.771-1.991H32.01V30.935z
				"/>
			<path fill="#FFFFFF" d="M37.873,29.584c1.432,0,2.696-0.472,3.714-1.457c1.018-1.011,1.536-2.262,1.536-3.768
				c0-1.437-0.524-2.668-1.54-3.685c-1.021-1.046-2.281-1.566-3.71-1.566c-1.505,0-2.771,0.521-3.724,1.566
				c-1.016,1.017-1.495,2.248-1.495,3.685c0,1.51,0.479,2.76,1.495,3.768C35.108,29.113,36.373,29.584,37.873,29.584z"/>
		</g>
		<g opacity="0.5">
			<path fill="#FFFFFF" d="M67.302,62.864v18.413c0,0.723-0.238,1.322-0.686,1.756c-0.448,0.45-1.033,0.668-1.75,0.668
				c-0.727,0-1.346-0.218-1.826-0.668C62.526,82.6,62.292,82,62.292,81.277V62.864h-6.9l7.178-24.237h-1.233
				c-0.788,2.717-1.45,4.903-1.97,6.637c-0.467,1.726-0.986,3.364-1.436,4.939c-0.512,1.558-0.857,2.543-0.891,2.878
				c-0.312,1.03-0.994,1.529-2.061,1.529l-0.543-0.133c-0.995-0.368-1.48-1.012-1.48-1.928c0-0.253,0.035-0.458,0.135-0.665
				c0.072-0.178,0.278-0.786,0.52-1.82c0.277-1.025,0.649-2.299,1.098-3.78c0.447-1.505,0.932-3.135,1.439-4.884
				c0.518-1.758,0.993-3.449,1.576-5.079c0.344-1.25,1.1-2.388,2.268-3.372c1.163-1.02,2.373-1.484,3.636-1.484h8.443
				c1.306,0,2.574,0.464,3.708,1.484c1.102,0.988,1.894,2.121,2.335,3.372c0.473,1.63,0.957,3.321,1.434,5.079
				c0.489,1.749,1.003,3.378,1.417,4.884c0.438,1.482,0.82,2.755,1.091,3.78c0.274,1.034,0.45,1.642,0.547,1.82l0.134,0.544
				c0,1.108-0.519,1.756-1.512,2.042l-0.507,0.14c-1.094,0-1.781-0.501-2.056-1.529c-0.075-0.335-0.383-1.322-0.789-2.878
				c-0.479-1.575-0.968-3.213-1.517-4.939c-0.549-1.729-1.192-3.919-1.979-6.641h-1.239l7.167,24.244h-6.787v18.411
				c0,0.723-0.207,1.324-0.755,1.756c-0.484,0.452-1.067,0.668-1.783,0.668c-0.755,0-1.311-0.218-1.782-0.668
				c-0.448-0.432-0.65-1.033-0.65-1.756V62.864H67.302z"/>
			<path fill="#FFFFFF" d="M67.981,29.951c1.445,0,2.685-0.475,3.646-1.466c0.991-1.013,1.51-2.272,1.51-3.792
				c0-1.445-0.519-2.685-1.51-3.708c-0.955-1.052-2.2-1.576-3.646-1.576c-1.539,0-2.816,0.524-3.878,1.576
				c-1.027,1.019-1.534,2.263-1.534,3.708c0,1.52,0.507,2.778,1.539,3.792C65.173,29.476,66.446,29.951,67.981,29.951z"/>
		</g>
	</g>
	<path display="inline" fill="#FFFFFF" d="M86.111,73.127L63.697,50.998l22.104-22.327l-9.967-9.966L53.697,41.128L31.295,19.016
		l-9.883,9.883l22.432,22.213l-22.121,22.41l9.883,9.883L53.81,60.979l22.335,22.114L86.111,73.127z"/>
</g>
<g id="icn_place4" class="sprite">
	<g display="inline">
		<path fill="#FFFFFF" d="M46.947,30.709c-1.838,0-3.412,0.68-4.741,1.991c-1.333,1.371-2.019,2.966-2.019,4.743v16.421
			c0,0.615,0.21,1.172,0.686,1.621c0.439,0.445,0.986,0.646,1.607,0.646c0.714,0,1.261-0.201,1.699-0.646
			c0.382-0.449,0.583-1.006,0.583-1.621V39.181h1.187v40.652c0,0.781,0.344,1.506,0.993,2.062c0.611,0.615,1.324,0.879,2.145,0.879
			c0.89,0,1.603-0.262,2.185-0.879c0.615-0.557,0.895-1.279,0.895-2.062V56.267h1.328v23.566c0,0.781,0.308,1.506,0.886,2.062
			c0.582,0.615,1.334,0.879,2.254,0.879c0.78,0,1.465-0.262,2.081-0.879c0.576-0.557,0.84-1.279,0.84-2.062V39.181h1.242v14.684
			c0,0.615,0.195,1.172,0.605,1.621c0.489,0.445,1.056,0.646,1.672,0.646c0.722,0,1.27-0.201,1.681-0.646
			c0.37-0.449,0.606-1.006,0.606-1.621v-16.42c0-1.771-0.646-3.373-1.979-4.738c-1.301-1.317-2.859-1.991-4.771-1.991H46.947V30.709
			z"/>
		<path fill="#FFFFFF" d="M52.811,29.359c1.432,0,2.696-0.472,3.714-1.457c1.018-1.011,1.536-2.262,1.536-3.768
			c0-1.437-0.524-2.668-1.54-3.685c-1.021-1.046-2.281-1.566-3.71-1.566c-1.505,0-2.771,0.521-3.724,1.566
			c-1.016,1.017-1.495,2.248-1.495,3.685c0,1.51,0.479,2.76,1.495,3.768C50.046,28.887,51.311,29.359,52.811,29.359z"/>
	</g>
	<g display="inline">
		<path fill="#FFFFFF" d="M20.721,62.139v18.413c0,0.723-0.238,1.322-0.686,1.756c-0.448,0.45-1.033,0.668-1.75,0.668
			c-0.727,0-1.346-0.218-1.826-0.668c-0.514-0.434-0.748-1.033-0.748-1.756V62.139h-6.9l7.178-24.237h-1.233
			c-0.788,2.717-1.45,4.903-1.97,6.637c-0.467,1.726-0.986,3.364-1.436,4.939c-0.512,1.558-0.857,2.543-0.891,2.878
			c-0.312,1.03-0.994,1.529-2.061,1.529l-0.543-0.133c-0.995-0.368-1.48-1.012-1.48-1.928c0-0.252,0.035-0.458,0.135-0.665
			c0.072-0.178,0.278-0.786,0.52-1.82c0.277-1.025,0.649-2.299,1.098-3.78c0.447-1.505,0.932-3.135,1.439-4.884
			c0.518-1.758,0.993-3.449,1.576-5.079c0.344-1.25,1.1-2.388,2.268-3.372c1.163-1.02,2.373-1.484,3.636-1.484h8.443
			c1.306,0,2.574,0.464,3.708,1.484c1.102,0.988,1.894,2.121,2.335,3.372c0.473,1.63,0.957,3.321,1.434,5.079
			c0.489,1.749,1.003,3.378,1.417,4.884c0.438,1.482,0.82,2.755,1.091,3.78c0.274,1.034,0.45,1.642,0.547,1.82l0.134,0.544
			c0,1.108-0.519,1.756-1.512,2.042l-0.507,0.14c-1.094,0-1.781-0.501-2.056-1.529c-0.075-0.335-0.383-1.322-0.789-2.878
			c-0.479-1.575-0.968-3.213-1.517-4.939c-0.549-1.729-1.192-3.919-1.979-6.641h-1.239l7.167,24.244h-6.787v18.411
			c0,0.723-0.207,1.324-0.755,1.756c-0.484,0.452-1.067,0.668-1.783,0.668c-0.755,0-1.311-0.218-1.782-0.668
			c-0.448-0.432-0.65-1.033-0.65-1.756V62.139H20.721z"/>
		<path fill="#FFFFFF" d="M21.4,29.225c1.445,0,2.685-0.475,3.646-1.466c0.991-1.013,1.51-2.272,1.51-3.792
			c0-1.445-0.519-2.685-1.51-3.708c-0.955-1.052-2.2-1.576-3.646-1.576c-1.539,0-2.816,0.524-3.878,1.576
			c-1.027,1.019-1.534,2.263-1.534,3.708c0,1.52,0.507,2.778,1.539,3.792C18.592,28.75,19.865,29.225,21.4,29.225z"/>
	</g>
	<g display="inline">
		<path fill="#FFFFFF" d="M82.191,62.639v18.413c0,0.723-0.238,1.322-0.686,1.756c-0.448,0.45-1.033,0.668-1.75,0.668
			c-0.727,0-1.346-0.218-1.826-0.668c-0.514-0.434-0.748-1.033-0.748-1.756V62.639h-6.9l7.178-24.237h-1.233
			c-0.788,2.717-1.45,4.903-1.97,6.637c-0.467,1.726-0.986,3.364-1.436,4.939c-0.512,1.558-0.857,2.543-0.891,2.878
			c-0.312,1.03-0.994,1.529-2.061,1.529l-0.543-0.133c-0.995-0.368-1.48-1.012-1.48-1.928c0-0.253,0.035-0.458,0.135-0.665
			c0.072-0.178,0.278-0.786,0.52-1.82c0.277-1.025,0.649-2.299,1.098-3.78c0.447-1.505,0.932-3.135,1.439-4.884
			c0.518-1.758,0.993-3.449,1.576-5.079c0.344-1.25,1.1-2.388,2.268-3.372c1.163-1.02,2.373-1.484,3.636-1.484h8.443
			c1.306,0,2.574,0.464,3.708,1.484c1.102,0.988,1.894,2.121,2.335,3.372c0.473,1.63,0.957,3.321,1.434,5.079
			c0.489,1.749,1.003,3.378,1.417,4.884c0.438,1.482,0.82,2.755,1.091,3.78c0.274,1.034,0.45,1.642,0.547,1.82l0.134,0.544
			c0,1.108-0.519,1.756-1.512,2.042l-0.507,0.14c-1.094,0-1.781-0.501-2.056-1.529c-0.075-0.335-0.383-1.322-0.789-2.878
			c-0.479-1.575-0.968-3.213-1.517-4.939c-0.549-1.729-1.192-3.919-1.979-6.641h-1.239l7.167,24.244h-6.787v18.411
			c0,0.723-0.207,1.324-0.755,1.756c-0.484,0.452-1.067,0.668-1.783,0.668c-0.755,0-1.311-0.218-1.782-0.668
			c-0.448-0.432-0.65-1.033-0.65-1.756V62.639H82.191z"/>
		<path fill="#FFFFFF" d="M82.871,29.725c1.445,0,2.685-0.475,3.646-1.466c0.991-1.013,1.51-2.272,1.51-3.792
			c0-1.445-0.519-2.685-1.51-3.708c-0.955-1.052-2.2-1.576-3.646-1.576c-1.539,0-2.816,0.524-3.878,1.576
			c-1.027,1.019-1.534,2.263-1.534,3.708c0,1.52,0.507,2.778,1.539,3.792C80.062,29.25,81.336,29.725,82.871,29.725z"/>
	</g>
	<g display="inline" opacity="0.5">
		<path fill="#FFFFFF" d="M32.01,30.459c-1.838,0-3.412,0.68-4.741,1.991c-1.333,1.371-2.019,2.966-2.019,4.743v16.421
			c0,0.615,0.21,1.172,0.686,1.621c0.439,0.445,0.986,0.646,1.607,0.646c0.714,0,1.261-0.201,1.699-0.646
			c0.382-0.449,0.583-1.006,0.583-1.621V38.931h1.187v40.652c0,0.781,0.344,1.506,0.993,2.062c0.611,0.615,1.324,0.879,2.145,0.879
			c0.89,0,1.603-0.262,2.185-0.879c0.615-0.557,0.895-1.279,0.895-2.062V56.017h1.328v23.566c0,0.781,0.308,1.506,0.886,2.062
			c0.582,0.615,1.334,0.879,2.254,0.879c0.78,0,1.465-0.262,2.081-0.879c0.576-0.557,0.84-1.279,0.84-2.062V38.931h1.242v14.684
			c0,0.615,0.195,1.172,0.605,1.621c0.489,0.445,1.056,0.646,1.672,0.646c0.722,0,1.27-0.201,1.681-0.646
			c0.37-0.449,0.606-1.006,0.606-1.621v-16.42c0-1.771-0.646-3.373-1.979-4.738c-1.301-1.317-2.859-1.991-4.771-1.991H32.01V30.459z
			"/>
		<path fill="#FFFFFF" d="M37.873,29.109c1.432,0,2.696-0.472,3.714-1.457c1.018-1.011,1.536-2.262,1.536-3.768
			c0-1.437-0.524-2.668-1.54-3.685c-1.021-1.046-2.281-1.566-3.71-1.566c-1.505,0-2.771,0.521-3.724,1.566
			c-1.016,1.017-1.495,2.248-1.495,3.685c0,1.51,0.479,2.76,1.495,3.768C35.108,28.637,36.373,29.109,37.873,29.109z"/>
	</g>
	<g display="inline" opacity="0.5">
		<path fill="#FFFFFF" d="M67.302,62.389v18.413c0,0.723-0.238,1.322-0.686,1.756c-0.448,0.45-1.033,0.668-1.75,0.668
			c-0.727,0-1.346-0.218-1.826-0.668c-0.514-0.434-0.748-1.033-0.748-1.756V62.389h-6.9l7.178-24.237h-1.233
			c-0.788,2.717-1.45,4.903-1.97,6.637c-0.467,1.726-0.986,3.364-1.436,4.939c-0.512,1.558-0.857,2.543-0.891,2.878
			c-0.312,1.03-0.994,1.529-2.061,1.529l-0.543-0.133c-0.995-0.368-1.48-1.012-1.48-1.928c0-0.253,0.035-0.458,0.135-0.665
			c0.072-0.178,0.278-0.786,0.52-1.82c0.277-1.025,0.649-2.299,1.098-3.78c0.447-1.505,0.932-3.135,1.439-4.884
			c0.518-1.758,0.993-3.449,1.576-5.079c0.344-1.25,1.1-2.388,2.268-3.372c1.163-1.02,2.373-1.484,3.636-1.484h8.443
			c1.306,0,2.574,0.464,3.708,1.484c1.102,0.988,1.894,2.121,2.335,3.372c0.473,1.63,0.957,3.321,1.434,5.079
			c0.489,1.749,1.003,3.378,1.417,4.884c0.438,1.482,0.82,2.755,1.091,3.78c0.274,1.034,0.45,1.642,0.547,1.82l0.134,0.544
			c0,1.108-0.519,1.756-1.512,2.042l-0.507,0.14c-1.094,0-1.781-0.501-2.056-1.529c-0.075-0.335-0.383-1.322-0.789-2.878
			c-0.479-1.575-0.968-3.213-1.517-4.939c-0.549-1.729-1.192-3.919-1.979-6.641h-1.239l7.167,24.244h-6.787v18.411
			c0,0.723-0.207,1.324-0.755,1.756c-0.484,0.452-1.067,0.668-1.783,0.668c-0.755,0-1.311-0.218-1.782-0.668
			c-0.448-0.432-0.65-1.033-0.65-1.756V62.389H67.302z"/>
		<path fill="#FFFFFF" d="M67.981,29.475c1.445,0,2.685-0.475,3.646-1.466c0.991-1.013,1.51-2.272,1.51-3.792
			c0-1.445-0.519-2.685-1.51-3.708c-0.955-1.052-2.2-1.576-3.646-1.576c-1.539,0-2.816,0.524-3.878,1.576
			c-1.027,1.019-1.534,2.263-1.534,3.708c0,1.52,0.507,2.778,1.539,3.792C65.173,29,66.446,29.475,67.981,29.475z"/>
	</g>
</g>
<g id="icn_place3" class="sprite">
	<g display="inline">
		<path fill="#FFFFFF" d="M46.947,30.66c-1.838,0-3.412,0.68-4.741,1.991c-1.333,1.371-2.019,2.966-2.019,4.743v16.421
			c0,0.615,0.21,1.172,0.686,1.621c0.439,0.445,0.986,0.646,1.607,0.646c0.714,0,1.261-0.201,1.699-0.646
			c0.382-0.449,0.583-1.006,0.583-1.621V39.131h1.187v40.652c0,0.781,0.344,1.506,0.993,2.062c0.611,0.615,1.324,0.879,2.145,0.879
			c0.89,0,1.603-0.262,2.185-0.879c0.615-0.557,0.895-1.279,0.895-2.062V56.217h1.328v23.566c0,0.781,0.308,1.506,0.886,2.062
			c0.582,0.615,1.334,0.879,2.254,0.879c0.78,0,1.465-0.262,2.081-0.879c0.576-0.557,0.84-1.279,0.84-2.062V39.131h1.242v14.684
			c0,0.615,0.195,1.172,0.605,1.621c0.489,0.445,1.056,0.646,1.672,0.646c0.722,0,1.27-0.201,1.681-0.646
			c0.37-0.449,0.606-1.006,0.606-1.621v-16.42c0-1.771-0.646-3.373-1.979-4.738c-1.301-1.317-2.859-1.991-4.771-1.991H46.947V30.66z
			"/>
		<path fill="#FFFFFF" d="M52.811,29.309c1.432,0,2.696-0.472,3.714-1.457c1.018-1.011,1.536-2.262,1.536-3.768
			c0-1.437-0.524-2.668-1.54-3.685c-1.021-1.046-2.281-1.566-3.71-1.566c-1.505,0-2.771,0.521-3.724,1.566
			c-1.016,1.017-1.495,2.248-1.495,3.685c0,1.51,0.479,2.76,1.495,3.768C50.046,28.837,51.311,29.309,52.811,29.309z"/>
	</g>
	<g display="inline">
		<path fill="#FFFFFF" d="M20.721,62.089v18.413c0,0.723-0.238,1.322-0.686,1.756c-0.448,0.45-1.033,0.668-1.75,0.668
			c-0.727,0-1.346-0.218-1.826-0.668c-0.514-0.434-0.748-1.033-0.748-1.756V62.089h-6.9l7.178-24.237h-1.233
			c-0.788,2.717-1.45,4.903-1.97,6.637c-0.467,1.726-0.986,3.364-1.436,4.939c-0.512,1.558-0.857,2.543-0.891,2.878
			c-0.312,1.03-0.994,1.529-2.061,1.529l-0.543-0.133c-0.995-0.368-1.48-1.012-1.48-1.928c0-0.252,0.035-0.458,0.135-0.665
			c0.072-0.178,0.278-0.786,0.52-1.82c0.277-1.025,0.649-2.299,1.098-3.78c0.447-1.505,0.932-3.135,1.439-4.884
			c0.518-1.758,0.993-3.449,1.576-5.079c0.344-1.25,1.1-2.388,2.268-3.372c1.163-1.02,2.373-1.484,3.636-1.484h8.443
			c1.306,0,2.574,0.464,3.708,1.484c1.102,0.988,1.894,2.121,2.335,3.372c0.473,1.63,0.957,3.321,1.434,5.079
			c0.489,1.749,1.003,3.378,1.417,4.884c0.438,1.482,0.82,2.755,1.091,3.78c0.274,1.034,0.45,1.642,0.547,1.82l0.134,0.544
			c0,1.108-0.519,1.756-1.512,2.042l-0.507,0.14c-1.094,0-1.781-0.501-2.056-1.529c-0.075-0.335-0.383-1.322-0.789-2.878
			c-0.479-1.575-0.968-3.213-1.517-4.939c-0.549-1.729-1.192-3.919-1.979-6.641h-1.239l7.167,24.244h-6.787v18.411
			c0,0.723-0.207,1.324-0.755,1.756c-0.484,0.452-1.067,0.668-1.783,0.668c-0.755,0-1.311-0.218-1.782-0.668
			c-0.448-0.432-0.65-1.033-0.65-1.756V62.089H20.721z"/>
		<path fill="#FFFFFF" d="M21.4,29.175c1.445,0,2.685-0.475,3.646-1.466c0.991-1.013,1.51-2.272,1.51-3.792
			c0-1.445-0.519-2.685-1.51-3.708c-0.955-1.052-2.2-1.576-3.646-1.576c-1.539,0-2.816,0.524-3.878,1.576
			c-1.027,1.019-1.534,2.263-1.534,3.708c0,1.52,0.507,2.778,1.539,3.792C18.592,28.7,19.865,29.175,21.4,29.175z"/>
	</g>
	<g display="inline">
		<path fill="#FFFFFF" d="M82.191,62.589v18.413c0,0.723-0.238,1.322-0.686,1.756c-0.448,0.45-1.033,0.668-1.75,0.668
			c-0.727,0-1.346-0.218-1.826-0.668c-0.514-0.434-0.748-1.033-0.748-1.756V62.589h-6.9l7.178-24.237h-1.233
			c-0.788,2.717-1.45,4.903-1.97,6.637c-0.467,1.726-0.986,3.364-1.436,4.939c-0.512,1.558-0.857,2.543-0.891,2.878
			c-0.312,1.03-0.994,1.529-2.061,1.529l-0.543-0.133c-0.995-0.368-1.48-1.012-1.48-1.928c0-0.253,0.035-0.458,0.135-0.665
			c0.072-0.178,0.278-0.786,0.52-1.82c0.277-1.025,0.649-2.299,1.098-3.78c0.447-1.505,0.932-3.135,1.439-4.884
			c0.518-1.758,0.993-3.449,1.576-5.079c0.344-1.25,1.1-2.388,2.268-3.372c1.163-1.02,2.373-1.484,3.636-1.484h8.443
			c1.306,0,2.574,0.464,3.708,1.484c1.102,0.988,1.894,2.121,2.335,3.372c0.473,1.63,0.957,3.321,1.434,5.079
			c0.489,1.749,1.003,3.378,1.417,4.884c0.438,1.482,0.82,2.755,1.091,3.78c0.274,1.034,0.45,1.642,0.547,1.82l0.134,0.544
			c0,1.108-0.519,1.756-1.512,2.042l-0.507,0.14c-1.094,0-1.781-0.501-2.056-1.529c-0.075-0.335-0.383-1.322-0.789-2.878
			c-0.479-1.575-0.968-3.213-1.517-4.939c-0.549-1.729-1.192-3.919-1.979-6.641h-1.239l7.167,24.244h-6.787v18.411
			c0,0.723-0.207,1.324-0.755,1.756c-0.484,0.452-1.067,0.668-1.783,0.668c-0.755,0-1.311-0.218-1.782-0.668
			c-0.448-0.432-0.65-1.033-0.65-1.756V62.589H82.191z"/>
		<path fill="#FFFFFF" d="M82.871,29.675c1.445,0,2.685-0.475,3.646-1.466c0.991-1.013,1.51-2.272,1.51-3.792
			c0-1.445-0.519-2.685-1.51-3.708c-0.955-1.052-2.2-1.576-3.646-1.576c-1.539,0-2.816,0.524-3.878,1.576
			c-1.027,1.019-1.534,2.263-1.534,3.708c0,1.52,0.507,2.778,1.539,3.792C80.062,29.2,81.336,29.675,82.871,29.675z"/>
	</g>
</g>
<g id="icn_place2" class="sprite">
	<g display="inline">
		<path fill="#FFFFFF" d="M61.844,30.66c-1.838,0-3.412,0.68-4.741,1.991c-1.333,1.371-2.019,2.966-2.019,4.743v16.421
			c0,0.615,0.21,1.172,0.686,1.621c0.439,0.445,0.986,0.646,1.607,0.646c0.714,0,1.261-0.201,1.699-0.646
			c0.382-0.449,0.583-1.006,0.583-1.621V39.131h1.187v40.652c0,0.781,0.344,1.506,0.993,2.062c0.611,0.615,1.324,0.879,2.145,0.879
			c0.89,0,1.603-0.262,2.185-0.879c0.615-0.557,0.895-1.279,0.895-2.062V56.217h1.328v23.566c0,0.781,0.308,1.506,0.886,2.062
			c0.582,0.615,1.334,0.879,2.254,0.879c0.78,0,1.465-0.262,2.081-0.879c0.576-0.557,0.84-1.279,0.84-2.062V39.131h1.242v14.684
			c0,0.615,0.195,1.172,0.605,1.621c0.489,0.445,1.056,0.646,1.672,0.646c0.722,0,1.27-0.201,1.681-0.646
			c0.37-0.449,0.606-1.006,0.606-1.621v-16.42c0-1.771-0.646-3.373-1.979-4.738c-1.301-1.317-2.859-1.991-4.771-1.991H61.844V30.66z
			"/>
		<path fill="#FFFFFF" d="M67.707,29.309c1.432,0,2.696-0.472,3.714-1.457c1.018-1.011,1.536-2.262,1.536-3.768
			c0-1.437-0.524-2.668-1.54-3.685c-1.021-1.046-2.281-1.566-3.71-1.566c-1.505,0-2.771,0.521-3.724,1.566
			c-1.016,1.017-1.495,2.248-1.495,3.685c0,1.51,0.479,2.76,1.495,3.768C64.942,28.837,66.207,29.309,67.707,29.309z"/>
	</g>
	<g display="inline">
		<path fill="#FFFFFF" d="M35.617,62.089v18.413c0,0.723-0.238,1.322-0.686,1.756c-0.448,0.45-1.033,0.668-1.75,0.668
			c-0.727,0-1.346-0.218-1.826-0.668c-0.514-0.434-0.748-1.033-0.748-1.756V62.089h-6.9l7.178-24.237h-1.233
			c-0.788,2.717-1.45,4.903-1.97,6.637c-0.467,1.726-0.986,3.364-1.436,4.939c-0.512,1.558-0.857,2.543-0.891,2.878
			c-0.312,1.03-0.994,1.529-2.061,1.529l-0.543-0.133c-0.995-0.368-1.48-1.012-1.48-1.928c0-0.252,0.035-0.458,0.135-0.665
			c0.072-0.178,0.278-0.786,0.52-1.82c0.277-1.025,0.649-2.299,1.098-3.78c0.447-1.505,0.932-3.135,1.439-4.884
			c0.518-1.758,0.993-3.449,1.576-5.079c0.344-1.25,1.1-2.388,2.268-3.372c1.163-1.02,2.373-1.484,3.636-1.484h8.443
			c1.306,0,2.574,0.464,3.708,1.484c1.102,0.988,1.894,2.121,2.335,3.372c0.473,1.63,0.957,3.321,1.434,5.079
			c0.489,1.749,1.003,3.378,1.417,4.884c0.438,1.482,0.82,2.755,1.091,3.78c0.274,1.034,0.45,1.642,0.547,1.82l0.134,0.544
			c0,1.108-0.519,1.756-1.512,2.042l-0.507,0.14c-1.094,0-1.781-0.501-2.056-1.529c-0.075-0.335-0.383-1.322-0.789-2.878
			c-0.479-1.575-0.968-3.213-1.517-4.939c-0.549-1.729-1.192-3.919-1.979-6.641h-1.239l7.167,24.244h-6.787v18.411
			c0,0.723-0.207,1.324-0.755,1.756c-0.484,0.452-1.067,0.668-1.783,0.668c-0.755,0-1.311-0.218-1.782-0.668
			c-0.448-0.432-0.65-1.033-0.65-1.756V62.089H35.617z"/>
		<path fill="#FFFFFF" d="M36.297,29.175c1.445,0,2.685-0.475,3.646-1.466c0.991-1.013,1.51-2.272,1.51-3.792
			c0-1.445-0.519-2.685-1.51-3.708c-0.955-1.052-2.2-1.576-3.646-1.576c-1.539,0-2.816,0.524-3.878,1.576
			c-1.027,1.019-1.534,2.263-1.534,3.708c0,1.52,0.507,2.778,1.539,3.792C33.488,28.7,34.762,29.175,36.297,29.175z"/>
	</g>
</g>
<g id="icn_place1" class="sprite">
	<path display="inline" fill="#FFFFFF" d="M51.456,62.289v18.413c0,0.723-0.238,1.322-0.686,1.756
		c-0.448,0.45-1.033,0.668-1.75,0.668c-0.727,0-1.346-0.218-1.826-0.668c-0.514-0.434-0.748-1.033-0.748-1.756V62.289h-6.9
		l7.178-24.237H45.49c-0.788,2.717-1.45,4.903-1.97,6.637c-0.467,1.726-0.986,3.364-1.436,4.939
		c-0.512,1.558-0.857,2.543-0.891,2.878c-0.312,1.03-0.994,1.529-2.061,1.529l-0.543-0.133c-0.995-0.368-1.48-1.012-1.48-1.928
		c0-0.252,0.035-0.458,0.135-0.665c0.072-0.178,0.278-0.786,0.52-1.82c0.277-1.025,0.649-2.299,1.098-3.78
		c0.447-1.505,0.932-3.135,1.439-4.884c0.518-1.758,0.993-3.449,1.576-5.079c0.344-1.25,1.1-2.388,2.268-3.372
		c1.163-1.02,2.373-1.484,3.636-1.484h8.443c1.306,0,2.574,0.464,3.708,1.484c1.102,0.988,1.894,2.121,2.335,3.372
		c0.473,1.63,0.957,3.321,1.434,5.079c0.489,1.749,1.003,3.378,1.417,4.884c0.438,1.482,0.82,2.755,1.091,3.78
		c0.274,1.034,0.45,1.642,0.547,1.82l0.134,0.544c0,1.108-0.519,1.756-1.512,2.042l-0.507,0.14c-1.094,0-1.781-0.501-2.056-1.529
		c-0.075-0.335-0.383-1.322-0.789-2.878c-0.479-1.575-0.968-3.213-1.517-4.939c-0.549-1.729-1.192-3.919-1.979-6.641h-1.239
		l7.167,24.244h-6.787v18.411c0,0.723-0.207,1.324-0.755,1.756c-0.484,0.452-1.067,0.668-1.783,0.668
		c-0.755,0-1.311-0.218-1.782-0.668c-0.448-0.432-0.65-1.033-0.65-1.756V62.289H51.456z"/>
	<path display="inline" fill="#FFFFFF" d="M52.136,29.375c1.445,0,2.685-0.475,3.646-1.466c0.991-1.013,1.51-2.272,1.51-3.792
		c0-1.445-0.519-2.685-1.51-3.708c-0.955-1.052-2.2-1.576-3.646-1.576c-1.539,0-2.816,0.524-3.878,1.576
		c-1.027,1.019-1.534,2.263-1.534,3.708c0,1.52,0.507,2.778,1.539,3.792C49.327,28.9,50.601,29.375,52.136,29.375z"/>
</g>

</svg>
